<mxfile host="app.diagrams.net" agent="Mozilla/5.0 (Windows NT 10.0; Win64; x64) AppleWebKit/537.36 (KHTML, like Gecko) Chrome/137.0.0.0 Safari/537.36" version="27.1.4">
  <diagram name="PÃ¡gina-1" id="F2UJ6853SAW7tfomUit3">
    <mxGraphModel dx="4239" dy="1097" grid="1" gridSize="10" guides="1" tooltips="1" connect="1" arrows="1" fold="1" page="1" pageScale="1" pageWidth="1169" pageHeight="1654" math="0" shadow="0">
      <root>
        <mxCell id="0" />
        <mxCell id="1" parent="0" />
        <mxCell id="7A8Va4b6gNFC_HV1zoVn-414" value="estado" style="edgeStyle=orthogonalEdgeStyle;rounded=0;orthogonalLoop=1;jettySize=auto;html=1;exitX=0.5;exitY=1;exitDx=0;exitDy=0;entryX=0.5;entryY=0;entryDx=0;entryDy=0;" edge="1" parent="1" source="7A8Va4b6gNFC_HV1zoVn-184" target="7A8Va4b6gNFC_HV1zoVn-243">
          <mxGeometry x="0.0056" relative="1" as="geometry">
            <mxPoint as="offset" />
          </mxGeometry>
        </mxCell>
        <mxCell id="7A8Va4b6gNFC_HV1zoVn-424" value="busca *" style="edgeStyle=orthogonalEdgeStyle;rounded=0;orthogonalLoop=1;jettySize=auto;html=1;exitX=0.25;exitY=0;exitDx=0;exitDy=0;entryX=1;entryY=0.5;entryDx=0;entryDy=0;" edge="1" parent="1" source="7A8Va4b6gNFC_HV1zoVn-184" target="7A8Va4b6gNFC_HV1zoVn-336">
          <mxGeometry x="0.0013" relative="1" as="geometry">
            <mxPoint as="offset" />
          </mxGeometry>
        </mxCell>
        <mxCell id="7A8Va4b6gNFC_HV1zoVn-439" style="edgeStyle=orthogonalEdgeStyle;rounded=0;orthogonalLoop=1;jettySize=auto;html=1;exitX=0.25;exitY=1;exitDx=0;exitDy=0;endArrow=none;startFill=0;" edge="1" parent="1" source="7A8Va4b6gNFC_HV1zoVn-184">
          <mxGeometry relative="1" as="geometry">
            <mxPoint x="-130" y="2160" as="targetPoint" />
          </mxGeometry>
        </mxCell>
        <mxCell id="7A8Va4b6gNFC_HV1zoVn-184" value="Muestra" style="swimlane;fontStyle=1;childLayout=stackLayout;horizontal=1;startSize=26;horizontalStack=0;resizeParent=1;resizeParentMax=0;resizeLast=0;collapsible=1;marginBottom=0;" vertex="1" parent="1">
          <mxGeometry x="-100" y="1120" width="430" height="814" as="geometry" />
        </mxCell>
        <mxCell id="7A8Va4b6gNFC_HV1zoVn-185" value="- String foto" style="text;strokeColor=none;fillColor=none;align=left;verticalAlign=top;spacingLeft=4;spacingRight=4;overflow=hidden;rotatable=0;points=[[0,0.5],[1,0.5]];portConstraint=eastwest;" vertex="1" parent="7A8Va4b6gNFC_HV1zoVn-184">
          <mxGeometry y="26" width="430" height="26" as="geometry" />
        </mxCell>
        <mxCell id="7A8Va4b6gNFC_HV1zoVn-186" value="- Ubicacion ubicacion" style="text;strokeColor=none;fillColor=none;align=left;verticalAlign=top;spacingLeft=4;spacingRight=4;overflow=hidden;rotatable=0;points=[[0,0.5],[1,0.5]];portConstraint=eastwest;" vertex="1" parent="7A8Va4b6gNFC_HV1zoVn-184">
          <mxGeometry y="52" width="430" height="26" as="geometry" />
        </mxCell>
        <mxCell id="7A8Va4b6gNFC_HV1zoVn-187" value="- Usuario autor" style="text;strokeColor=none;fillColor=none;align=left;verticalAlign=top;spacingLeft=4;spacingRight=4;overflow=hidden;rotatable=0;points=[[0,0.5],[1,0.5]];portConstraint=eastwest;" vertex="1" parent="7A8Va4b6gNFC_HV1zoVn-184">
          <mxGeometry y="78" width="430" height="26" as="geometry" />
        </mxCell>
        <mxCell id="7A8Va4b6gNFC_HV1zoVn-188" value="- Especie especieInicial" style="text;strokeColor=none;fillColor=none;align=left;verticalAlign=top;spacingLeft=4;spacingRight=4;overflow=hidden;rotatable=0;points=[[0,0.5],[1,0.5]];portConstraint=eastwest;" vertex="1" parent="7A8Va4b6gNFC_HV1zoVn-184">
          <mxGeometry y="104" width="430" height="26" as="geometry" />
        </mxCell>
        <mxCell id="7A8Va4b6gNFC_HV1zoVn-189" value="- LocalDate fechaCreacion" style="text;strokeColor=none;fillColor=none;align=left;verticalAlign=top;spacingLeft=4;spacingRight=4;overflow=hidden;rotatable=0;points=[[0,0.5],[1,0.5]];portConstraint=eastwest;" vertex="1" parent="7A8Va4b6gNFC_HV1zoVn-184">
          <mxGeometry y="130" width="430" height="26" as="geometry" />
        </mxCell>
        <mxCell id="7A8Va4b6gNFC_HV1zoVn-190" value="- HistorialOpiniones historialOpiniones" style="text;strokeColor=none;fillColor=none;align=left;verticalAlign=top;spacingLeft=4;spacingRight=4;overflow=hidden;rotatable=0;points=[[0,0.5],[1,0.5]];portConstraint=eastwest;" vertex="1" parent="7A8Va4b6gNFC_HV1zoVn-184">
          <mxGeometry y="156" width="430" height="26" as="geometry" />
        </mxCell>
        <mxCell id="7A8Va4b6gNFC_HV1zoVn-191" value="- EstadoMuestra estado" style="text;strokeColor=none;fillColor=none;align=left;verticalAlign=top;spacingLeft=4;spacingRight=4;overflow=hidden;rotatable=0;points=[[0,0.5],[1,0.5]];portConstraint=eastwest;" vertex="1" parent="7A8Va4b6gNFC_HV1zoVn-184">
          <mxGeometry y="182" width="430" height="26" as="geometry" />
        </mxCell>
        <mxCell id="7A8Va4b6gNFC_HV1zoVn-192" value="- List&lt;MuestraObserver&gt; observadores" style="text;strokeColor=none;fillColor=none;align=left;verticalAlign=top;spacingLeft=4;spacingRight=4;overflow=hidden;rotatable=0;points=[[0,0.5],[1,0.5]];portConstraint=eastwest;" vertex="1" parent="7A8Va4b6gNFC_HV1zoVn-184">
          <mxGeometry y="208" width="430" height="26" as="geometry" />
        </mxCell>
        <mxCell id="7A8Va4b6gNFC_HV1zoVn-193" value="- TipoOpinion resultadoVerificado" style="text;strokeColor=none;fillColor=none;align=left;verticalAlign=top;spacingLeft=4;spacingRight=4;overflow=hidden;rotatable=0;points=[[0,0.5],[1,0.5]];portConstraint=eastwest;" vertex="1" parent="7A8Va4b6gNFC_HV1zoVn-184">
          <mxGeometry y="234" width="430" height="26" as="geometry" />
        </mxCell>
        <mxCell id="7A8Va4b6gNFC_HV1zoVn-194" value="" style="line;strokeWidth=1;fillColor=none;align=left;verticalAlign=middle;spacingTop=-1;spacingLeft=3;spacingRight=3;rotatable=0;labelPosition=right;points=[];portConstraint=eastwest;" vertex="1" parent="7A8Va4b6gNFC_HV1zoVn-184">
          <mxGeometry y="260" width="430" height="8" as="geometry" />
        </mxCell>
        <mxCell id="7A8Va4b6gNFC_HV1zoVn-195" value="+ Muestra(String, Ubicacion, Usuario, Especie, LocalDate, EstadoMuestra)" style="text;strokeColor=none;fillColor=none;align=left;verticalAlign=top;spacingLeft=4;spacingRight=4;overflow=hidden;rotatable=0;points=[[0,0.5],[1,0.5]];portConstraint=eastwest;" vertex="1" parent="7A8Va4b6gNFC_HV1zoVn-184">
          <mxGeometry y="268" width="430" height="26" as="geometry" />
        </mxCell>
        <mxCell id="7A8Va4b6gNFC_HV1zoVn-196" value="+ Usuario getAutor()" style="text;strokeColor=none;fillColor=none;align=left;verticalAlign=top;spacingLeft=4;spacingRight=4;overflow=hidden;rotatable=0;points=[[0,0.5],[1,0.5]];portConstraint=eastwest;" vertex="1" parent="7A8Va4b6gNFC_HV1zoVn-184">
          <mxGeometry y="294" width="430" height="26" as="geometry" />
        </mxCell>
        <mxCell id="7A8Va4b6gNFC_HV1zoVn-197" value="+ void agregarOpinion(Opinion)" style="text;strokeColor=none;fillColor=none;align=left;verticalAlign=top;spacingLeft=4;spacingRight=4;overflow=hidden;rotatable=0;points=[[0,0.5],[1,0.5]];portConstraint=eastwest;" vertex="1" parent="7A8Va4b6gNFC_HV1zoVn-184">
          <mxGeometry y="320" width="430" height="26" as="geometry" />
        </mxCell>
        <mxCell id="7A8Va4b6gNFC_HV1zoVn-198" value="+ List&lt;Opinion&gt; getOpiniones()" style="text;strokeColor=none;fillColor=none;align=left;verticalAlign=top;spacingLeft=4;spacingRight=4;overflow=hidden;rotatable=0;points=[[0,0.5],[1,0.5]];portConstraint=eastwest;" vertex="1" parent="7A8Va4b6gNFC_HV1zoVn-184">
          <mxGeometry y="346" width="430" height="26" as="geometry" />
        </mxCell>
        <mxCell id="7A8Va4b6gNFC_HV1zoVn-199" value="+ void agregarOpinionAlHistorial(Opinion)" style="text;strokeColor=none;fillColor=none;align=left;verticalAlign=top;spacingLeft=4;spacingRight=4;overflow=hidden;rotatable=0;points=[[0,0.5],[1,0.5]];portConstraint=eastwest;" vertex="1" parent="7A8Va4b6gNFC_HV1zoVn-184">
          <mxGeometry y="372" width="430" height="26" as="geometry" />
        </mxCell>
        <mxCell id="7A8Va4b6gNFC_HV1zoVn-200" value="+ void agregarObservador(MuestraObserver)" style="text;strokeColor=none;fillColor=none;align=left;verticalAlign=top;spacingLeft=4;spacingRight=4;overflow=hidden;rotatable=0;points=[[0,0.5],[1,0.5]];portConstraint=eastwest;" vertex="1" parent="7A8Va4b6gNFC_HV1zoVn-184">
          <mxGeometry y="398" width="430" height="26" as="geometry" />
        </mxCell>
        <mxCell id="7A8Va4b6gNFC_HV1zoVn-201" value="+ void quitarObservador(MuestraObserver)" style="text;strokeColor=none;fillColor=none;align=left;verticalAlign=top;spacingLeft=4;spacingRight=4;overflow=hidden;rotatable=0;points=[[0,0.5],[1,0.5]];portConstraint=eastwest;" vertex="1" parent="7A8Va4b6gNFC_HV1zoVn-184">
          <mxGeometry y="424" width="430" height="26" as="geometry" />
        </mxCell>
        <mxCell id="7A8Va4b6gNFC_HV1zoVn-202" value="+ void setEstado(EstadoMuestra)" style="text;strokeColor=none;fillColor=none;align=left;verticalAlign=top;spacingLeft=4;spacingRight=4;overflow=hidden;rotatable=0;points=[[0,0.5],[1,0.5]];portConstraint=eastwest;" vertex="1" parent="7A8Va4b6gNFC_HV1zoVn-184">
          <mxGeometry y="450" width="430" height="26" as="geometry" />
        </mxCell>
        <mxCell id="7A8Va4b6gNFC_HV1zoVn-203" value="+ void setResultadoVerificado(TipoOpinion)" style="text;strokeColor=none;fillColor=none;align=left;verticalAlign=top;spacingLeft=4;spacingRight=4;overflow=hidden;rotatable=0;points=[[0,0.5],[1,0.5]];portConstraint=eastwest;" vertex="1" parent="7A8Va4b6gNFC_HV1zoVn-184">
          <mxGeometry y="476" width="430" height="26" as="geometry" />
        </mxCell>
        <mxCell id="7A8Va4b6gNFC_HV1zoVn-204" value="+ void verificar()" style="text;strokeColor=none;fillColor=none;align=left;verticalAlign=top;spacingLeft=4;spacingRight=4;overflow=hidden;rotatable=0;points=[[0,0.5],[1,0.5]];portConstraint=eastwest;" vertex="1" parent="7A8Va4b6gNFC_HV1zoVn-184">
          <mxGeometry y="502" width="430" height="26" as="geometry" />
        </mxCell>
        <mxCell id="7A8Va4b6gNFC_HV1zoVn-205" value="+ Ubicacion getUbicacion()" style="text;strokeColor=none;fillColor=none;align=left;verticalAlign=top;spacingLeft=4;spacingRight=4;overflow=hidden;rotatable=0;points=[[0,0.5],[1,0.5]];portConstraint=eastwest;" vertex="1" parent="7A8Va4b6gNFC_HV1zoVn-184">
          <mxGeometry y="528" width="430" height="26" as="geometry" />
        </mxCell>
        <mxCell id="7A8Va4b6gNFC_HV1zoVn-206" value="+ String getFoto()" style="text;strokeColor=none;fillColor=none;align=left;verticalAlign=top;spacingLeft=4;spacingRight=4;overflow=hidden;rotatable=0;points=[[0,0.5],[1,0.5]];portConstraint=eastwest;" vertex="1" parent="7A8Va4b6gNFC_HV1zoVn-184">
          <mxGeometry y="554" width="430" height="26" as="geometry" />
        </mxCell>
        <mxCell id="7A8Va4b6gNFC_HV1zoVn-207" value="+ Especie getEspecieInicial()" style="text;strokeColor=none;fillColor=none;align=left;verticalAlign=top;spacingLeft=4;spacingRight=4;overflow=hidden;rotatable=0;points=[[0,0.5],[1,0.5]];portConstraint=eastwest;" vertex="1" parent="7A8Va4b6gNFC_HV1zoVn-184">
          <mxGeometry y="580" width="430" height="26" as="geometry" />
        </mxCell>
        <mxCell id="7A8Va4b6gNFC_HV1zoVn-208" value="+ LocalDate getFechaCreacion()" style="text;strokeColor=none;fillColor=none;align=left;verticalAlign=top;spacingLeft=4;spacingRight=4;overflow=hidden;rotatable=0;points=[[0,0.5],[1,0.5]];portConstraint=eastwest;" vertex="1" parent="7A8Va4b6gNFC_HV1zoVn-184">
          <mxGeometry y="606" width="430" height="26" as="geometry" />
        </mxCell>
        <mxCell id="7A8Va4b6gNFC_HV1zoVn-209" value="+ boolean estaVerificada()" style="text;strokeColor=none;fillColor=none;align=left;verticalAlign=top;spacingLeft=4;spacingRight=4;overflow=hidden;rotatable=0;points=[[0,0.5],[1,0.5]];portConstraint=eastwest;" vertex="1" parent="7A8Va4b6gNFC_HV1zoVn-184">
          <mxGeometry y="632" width="430" height="26" as="geometry" />
        </mxCell>
        <mxCell id="7A8Va4b6gNFC_HV1zoVn-210" value="+ HistorialOpiniones getHistorialOpiniones()" style="text;strokeColor=none;fillColor=none;align=left;verticalAlign=top;spacingLeft=4;spacingRight=4;overflow=hidden;rotatable=0;points=[[0,0.5],[1,0.5]];portConstraint=eastwest;" vertex="1" parent="7A8Va4b6gNFC_HV1zoVn-184">
          <mxGeometry y="658" width="430" height="26" as="geometry" />
        </mxCell>
        <mxCell id="7A8Va4b6gNFC_HV1zoVn-211" value="+ String getNombreEstado()" style="text;strokeColor=none;fillColor=none;align=left;verticalAlign=top;spacingLeft=4;spacingRight=4;overflow=hidden;rotatable=0;points=[[0,0.5],[1,0.5]];portConstraint=eastwest;" vertex="1" parent="7A8Va4b6gNFC_HV1zoVn-184">
          <mxGeometry y="684" width="430" height="26" as="geometry" />
        </mxCell>
        <mxCell id="7A8Va4b6gNFC_HV1zoVn-212" value="+ TipoOpinion getResultadoVerificado()" style="text;strokeColor=none;fillColor=none;align=left;verticalAlign=top;spacingLeft=4;spacingRight=4;overflow=hidden;rotatable=0;points=[[0,0.5],[1,0.5]];portConstraint=eastwest;" vertex="1" parent="7A8Va4b6gNFC_HV1zoVn-184">
          <mxGeometry y="710" width="430" height="26" as="geometry" />
        </mxCell>
        <mxCell id="7A8Va4b6gNFC_HV1zoVn-434" style="edgeStyle=orthogonalEdgeStyle;rounded=0;orthogonalLoop=1;jettySize=auto;html=1;exitX=0;exitY=0.5;exitDx=0;exitDy=0;endArrow=none;startFill=1;startArrow=classic;" edge="1" parent="7A8Va4b6gNFC_HV1zoVn-184" source="7A8Va4b6gNFC_HV1zoVn-213">
          <mxGeometry relative="1" as="geometry">
            <mxPoint x="-70" y="960" as="targetPoint" />
          </mxGeometry>
        </mxCell>
        <mxCell id="7A8Va4b6gNFC_HV1zoVn-213" value="+ LocalDate getFechaUltimaVotacion()" style="text;strokeColor=none;fillColor=none;align=left;verticalAlign=top;spacingLeft=4;spacingRight=4;overflow=hidden;rotatable=0;points=[[0,0.5],[1,0.5]];portConstraint=eastwest;" vertex="1" parent="7A8Va4b6gNFC_HV1zoVn-184">
          <mxGeometry y="736" width="430" height="26" as="geometry" />
        </mxCell>
        <mxCell id="7A8Va4b6gNFC_HV1zoVn-214" value="+ TipoOpinion getResultadoUltimaOpinion()" style="text;strokeColor=none;fillColor=none;align=left;verticalAlign=top;spacingLeft=4;spacingRight=4;overflow=hidden;rotatable=0;points=[[0,0.5],[1,0.5]];portConstraint=eastwest;" vertex="1" parent="7A8Va4b6gNFC_HV1zoVn-184">
          <mxGeometry y="762" width="430" height="26" as="geometry" />
        </mxCell>
        <mxCell id="7A8Va4b6gNFC_HV1zoVn-215" value="+ int cantidadOpinionesExperto()" style="text;strokeColor=none;fillColor=none;align=left;verticalAlign=top;spacingLeft=4;spacingRight=4;overflow=hidden;rotatable=0;points=[[0,0.5],[1,0.5]];portConstraint=eastwest;" vertex="1" parent="7A8Va4b6gNFC_HV1zoVn-184">
          <mxGeometry y="788" width="430" height="26" as="geometry" />
        </mxCell>
        <mxCell id="7A8Va4b6gNFC_HV1zoVn-419" style="edgeStyle=orthogonalEdgeStyle;rounded=0;orthogonalLoop=1;jettySize=auto;html=1;exitX=0.5;exitY=1;exitDx=0;exitDy=0;entryX=0.5;entryY=0;entryDx=0;entryDy=0;" edge="1" parent="1" source="7A8Va4b6gNFC_HV1zoVn-216" target="7A8Va4b6gNFC_HV1zoVn-239">
          <mxGeometry relative="1" as="geometry">
            <mxPoint x="-1569.9518072289156" y="2890" as="targetPoint" />
          </mxGeometry>
        </mxCell>
        <mxCell id="7A8Va4b6gNFC_HV1zoVn-216" value="Opinion" style="swimlane;fontStyle=1;childLayout=stackLayout;horizontal=1;startSize=26;horizontalStack=0;resizeParent=1;resizeParentMax=0;resizeLast=0;collapsible=1;marginBottom=0;" vertex="1" parent="1">
          <mxGeometry x="-1750" y="2449" width="360" height="320" as="geometry" />
        </mxCell>
        <mxCell id="7A8Va4b6gNFC_HV1zoVn-217" value="- Usuario autor" style="text;strokeColor=none;fillColor=none;align=left;verticalAlign=top;spacingLeft=4;spacingRight=4;overflow=hidden;rotatable=0;points=[[0,0.5],[1,0.5]];portConstraint=eastwest;" vertex="1" parent="7A8Va4b6gNFC_HV1zoVn-216">
          <mxGeometry y="26" width="360" height="26" as="geometry" />
        </mxCell>
        <mxCell id="7A8Va4b6gNFC_HV1zoVn-218" value="- TipoOpinion tipo" style="text;strokeColor=none;fillColor=none;align=left;verticalAlign=top;spacingLeft=4;spacingRight=4;overflow=hidden;rotatable=0;points=[[0,0.5],[1,0.5]];portConstraint=eastwest;" vertex="1" parent="7A8Va4b6gNFC_HV1zoVn-216">
          <mxGeometry y="52" width="360" height="26" as="geometry" />
        </mxCell>
        <mxCell id="7A8Va4b6gNFC_HV1zoVn-219" value="- boolean esDeExperto" style="text;strokeColor=none;fillColor=none;align=left;verticalAlign=top;spacingLeft=4;spacingRight=4;overflow=hidden;rotatable=0;points=[[0,0.5],[1,0.5]];portConstraint=eastwest;" vertex="1" parent="7A8Va4b6gNFC_HV1zoVn-216">
          <mxGeometry y="78" width="360" height="26" as="geometry" />
        </mxCell>
        <mxCell id="7A8Va4b6gNFC_HV1zoVn-220" value="- Muestra muestra" style="text;strokeColor=none;fillColor=none;align=left;verticalAlign=top;spacingLeft=4;spacingRight=4;overflow=hidden;rotatable=0;points=[[0,0.5],[1,0.5]];portConstraint=eastwest;" vertex="1" parent="7A8Va4b6gNFC_HV1zoVn-216">
          <mxGeometry y="104" width="360" height="26" as="geometry" />
        </mxCell>
        <mxCell id="7A8Va4b6gNFC_HV1zoVn-221" value="- LocalDate fecha" style="text;strokeColor=none;fillColor=none;align=left;verticalAlign=top;spacingLeft=4;spacingRight=4;overflow=hidden;rotatable=0;points=[[0,0.5],[1,0.5]];portConstraint=eastwest;" vertex="1" parent="7A8Va4b6gNFC_HV1zoVn-216">
          <mxGeometry y="130" width="360" height="26" as="geometry" />
        </mxCell>
        <mxCell id="7A8Va4b6gNFC_HV1zoVn-222" value="" style="line;strokeWidth=1;fillColor=none;align=left;verticalAlign=middle;spacingTop=-1;spacingLeft=3;spacingRight=3;rotatable=0;labelPosition=right;points=[];portConstraint=eastwest;" vertex="1" parent="7A8Va4b6gNFC_HV1zoVn-216">
          <mxGeometry y="156" width="360" height="8" as="geometry" />
        </mxCell>
        <mxCell id="7A8Va4b6gNFC_HV1zoVn-438" style="edgeStyle=orthogonalEdgeStyle;rounded=0;orthogonalLoop=1;jettySize=auto;html=1;exitX=1;exitY=0.5;exitDx=0;exitDy=0;endArrow=none;startFill=0;" edge="1" parent="7A8Va4b6gNFC_HV1zoVn-216" source="7A8Va4b6gNFC_HV1zoVn-223">
          <mxGeometry relative="1" as="geometry">
            <mxPoint x="1250" y="177.55555555555566" as="targetPoint" />
            <Array as="points">
              <mxPoint x="805" y="177" />
            </Array>
          </mxGeometry>
        </mxCell>
        <mxCell id="7A8Va4b6gNFC_HV1zoVn-223" value="+ Opinion(Usuario, TipoOpinion, boolean, Muestra, LocalDate)" style="text;strokeColor=none;fillColor=none;align=left;verticalAlign=top;spacingLeft=4;spacingRight=4;overflow=hidden;rotatable=0;points=[[0,0.5],[1,0.5]];portConstraint=eastwest;" vertex="1" parent="7A8Va4b6gNFC_HV1zoVn-216">
          <mxGeometry y="164" width="360" height="26" as="geometry" />
        </mxCell>
        <mxCell id="7A8Va4b6gNFC_HV1zoVn-224" value="+ Muestra getMuestra()" style="text;strokeColor=none;fillColor=none;align=left;verticalAlign=top;spacingLeft=4;spacingRight=4;overflow=hidden;rotatable=0;points=[[0,0.5],[1,0.5]];portConstraint=eastwest;" vertex="1" parent="7A8Va4b6gNFC_HV1zoVn-216">
          <mxGeometry y="190" width="360" height="26" as="geometry" />
        </mxCell>
        <mxCell id="7A8Va4b6gNFC_HV1zoVn-225" value="+ TipoOpinion getTipo()" style="text;strokeColor=none;fillColor=none;align=left;verticalAlign=top;spacingLeft=4;spacingRight=4;overflow=hidden;rotatable=0;points=[[0,0.5],[1,0.5]];portConstraint=eastwest;" vertex="1" parent="7A8Va4b6gNFC_HV1zoVn-216">
          <mxGeometry y="216" width="360" height="26" as="geometry" />
        </mxCell>
        <mxCell id="7A8Va4b6gNFC_HV1zoVn-226" value="+ boolean esDeExperto()" style="text;strokeColor=none;fillColor=none;align=left;verticalAlign=top;spacingLeft=4;spacingRight=4;overflow=hidden;rotatable=0;points=[[0,0.5],[1,0.5]];portConstraint=eastwest;" vertex="1" parent="7A8Va4b6gNFC_HV1zoVn-216">
          <mxGeometry y="242" width="360" height="26" as="geometry" />
        </mxCell>
        <mxCell id="7A8Va4b6gNFC_HV1zoVn-227" value="+ Usuario getAutor()" style="text;strokeColor=none;fillColor=none;align=left;verticalAlign=top;spacingLeft=4;spacingRight=4;overflow=hidden;rotatable=0;points=[[0,0.5],[1,0.5]];portConstraint=eastwest;" vertex="1" parent="7A8Va4b6gNFC_HV1zoVn-216">
          <mxGeometry y="268" width="360" height="26" as="geometry" />
        </mxCell>
        <mxCell id="7A8Va4b6gNFC_HV1zoVn-228" value="+ LocalDate getFecha()" style="text;strokeColor=none;fillColor=none;align=left;verticalAlign=top;spacingLeft=4;spacingRight=4;overflow=hidden;rotatable=0;points=[[0,0.5],[1,0.5]];portConstraint=eastwest;" vertex="1" parent="7A8Va4b6gNFC_HV1zoVn-216">
          <mxGeometry y="294" width="360" height="26" as="geometry" />
        </mxCell>
        <mxCell id="7A8Va4b6gNFC_HV1zoVn-401" value="opiniones *" style="edgeStyle=orthogonalEdgeStyle;rounded=0;orthogonalLoop=1;jettySize=auto;html=1;entryX=0;entryY=0.5;entryDx=0;entryDy=0;" edge="1" parent="1" source="7A8Va4b6gNFC_HV1zoVn-229" target="7A8Va4b6gNFC_HV1zoVn-223">
          <mxGeometry relative="1" as="geometry">
            <mxPoint x="-2090" y="2249" as="targetPoint" />
          </mxGeometry>
        </mxCell>
        <mxCell id="7A8Va4b6gNFC_HV1zoVn-229" value="HistorialOpiniones" style="swimlane;fontStyle=1;childLayout=stackLayout;horizontal=1;startSize=26;horizontalStack=0;resizeParent=1;resizeParentMax=0;resizeLast=0;collapsible=1;marginBottom=0;" vertex="1" parent="1">
          <mxGeometry x="-2190" y="1949" width="200" height="190" as="geometry" />
        </mxCell>
        <mxCell id="7A8Va4b6gNFC_HV1zoVn-230" value="- List&lt;Opinion&gt; opiniones" style="text;strokeColor=none;fillColor=none;align=left;verticalAlign=top;spacingLeft=4;spacingRight=4;overflow=hidden;rotatable=0;points=[[0,0.5],[1,0.5]];portConstraint=eastwest;" vertex="1" parent="7A8Va4b6gNFC_HV1zoVn-229">
          <mxGeometry y="26" width="200" height="26" as="geometry" />
        </mxCell>
        <mxCell id="7A8Va4b6gNFC_HV1zoVn-231" value="" style="line;strokeWidth=1;fillColor=none;align=left;verticalAlign=middle;spacingTop=-1;spacingLeft=3;spacingRight=3;rotatable=0;labelPosition=right;points=[];portConstraint=eastwest;" vertex="1" parent="7A8Va4b6gNFC_HV1zoVn-229">
          <mxGeometry y="52" width="200" height="8" as="geometry" />
        </mxCell>
        <mxCell id="7A8Va4b6gNFC_HV1zoVn-232" value="+ HistorialOpiniones()" style="text;strokeColor=none;fillColor=none;align=left;verticalAlign=top;spacingLeft=4;spacingRight=4;overflow=hidden;rotatable=0;points=[[0,0.5],[1,0.5]];portConstraint=eastwest;" vertex="1" parent="7A8Va4b6gNFC_HV1zoVn-229">
          <mxGeometry y="60" width="200" height="26" as="geometry" />
        </mxCell>
        <mxCell id="7A8Va4b6gNFC_HV1zoVn-233" value="+ void agregarOpinion(Opinion)" style="text;strokeColor=none;fillColor=none;align=left;verticalAlign=top;spacingLeft=4;spacingRight=4;overflow=hidden;rotatable=0;points=[[0,0.5],[1,0.5]];portConstraint=eastwest;" vertex="1" parent="7A8Va4b6gNFC_HV1zoVn-229">
          <mxGeometry y="86" width="200" height="26" as="geometry" />
        </mxCell>
        <mxCell id="7A8Va4b6gNFC_HV1zoVn-234" value="+ List&lt;Opinion&gt; getOpiniones()" style="text;strokeColor=none;fillColor=none;align=left;verticalAlign=top;spacingLeft=4;spacingRight=4;overflow=hidden;rotatable=0;points=[[0,0.5],[1,0.5]];portConstraint=eastwest;" vertex="1" parent="7A8Va4b6gNFC_HV1zoVn-229">
          <mxGeometry y="112" width="200" height="26" as="geometry" />
        </mxCell>
        <mxCell id="7A8Va4b6gNFC_HV1zoVn-235" value="+ int cantidadOpinionesExperto()" style="text;strokeColor=none;fillColor=none;align=left;verticalAlign=top;spacingLeft=4;spacingRight=4;overflow=hidden;rotatable=0;points=[[0,0.5],[1,0.5]];portConstraint=eastwest;" vertex="1" parent="7A8Va4b6gNFC_HV1zoVn-229">
          <mxGeometry y="138" width="200" height="26" as="geometry" />
        </mxCell>
        <mxCell id="7A8Va4b6gNFC_HV1zoVn-236" value="+ Opinion getUltimaOpinion()" style="text;strokeColor=none;fillColor=none;align=left;verticalAlign=top;spacingLeft=4;spacingRight=4;overflow=hidden;rotatable=0;points=[[0,0.5],[1,0.5]];portConstraint=eastwest;" vertex="1" parent="7A8Va4b6gNFC_HV1zoVn-229">
          <mxGeometry y="164" width="200" height="26" as="geometry" />
        </mxCell>
        <mxCell id="7A8Va4b6gNFC_HV1zoVn-237" value="MuestraObserver" style="swimlane;fontStyle=3;childLayout=stackLayout;horizontal=1;startSize=26;horizontalStack=0;resizeParent=1;resizeParentMax=0;resizeLast=0;collapsible=1;marginBottom=0;" vertex="1" parent="1">
          <mxGeometry x="760" y="1120" width="210" height="52" as="geometry" />
        </mxCell>
        <mxCell id="7A8Va4b6gNFC_HV1zoVn-238" value="+ void muestraVerificada(Muestra)" style="text;strokeColor=none;fillColor=none;align=left;verticalAlign=top;spacingLeft=4;spacingRight=4;overflow=hidden;rotatable=0;points=[[0,0.5],[1,0.5]];portConstraint=eastwest;" vertex="1" parent="7A8Va4b6gNFC_HV1zoVn-237">
          <mxGeometry y="26" width="210" height="26" as="geometry" />
        </mxCell>
        <mxCell id="7A8Va4b6gNFC_HV1zoVn-435" style="edgeStyle=orthogonalEdgeStyle;rounded=0;orthogonalLoop=1;jettySize=auto;html=1;exitX=1;exitY=0.25;exitDx=0;exitDy=0;endArrow=none;startFill=1;endFill=1;startArrow=classic;" edge="1" parent="1" source="7A8Va4b6gNFC_HV1zoVn-239">
          <mxGeometry relative="1" as="geometry">
            <mxPoint x="-440" y="2952" as="targetPoint" />
          </mxGeometry>
        </mxCell>
        <mxCell id="7A8Va4b6gNFC_HV1zoVn-239" value="TipoOpinion" style="swimlane;fontStyle=1;childLayout=stackLayout;horizontal=1;startSize=26;horizontalStack=0;resizeParent=1;resizeParentMax=0;resizeLast=0;collapsible=1;marginBottom=0;" vertex="1" parent="1">
          <mxGeometry x="-1875" y="2939" width="610" height="52" as="geometry" />
        </mxCell>
        <mxCell id="7A8Va4b6gNFC_HV1zoVn-432" style="edgeStyle=orthogonalEdgeStyle;rounded=0;orthogonalLoop=1;jettySize=auto;html=1;exitX=1;exitY=0.5;exitDx=0;exitDy=0;endArrow=none;startFill=1;endFill=1;startArrow=classic;" edge="1" parent="7A8Va4b6gNFC_HV1zoVn-239" source="7A8Va4b6gNFC_HV1zoVn-240">
          <mxGeometry relative="1" as="geometry">
            <mxPoint x="1275" y="21" as="targetPoint" />
            <Array as="points">
              <mxPoint x="1275" y="39" />
            </Array>
          </mxGeometry>
        </mxCell>
        <mxCell id="7A8Va4b6gNFC_HV1zoVn-240" value="VINCHUCA, CHINCHE_FOLIADA, PHTIA_CHINCHE, NINGUNA, IMAGEN_POCO_CLARA, NO_DEFINIDO" style="text;strokeColor=none;fillColor=none;align=left;verticalAlign=top;spacingLeft=4;spacingRight=4;overflow=hidden;rotatable=0;points=[[0,0.5],[1,0.5]];portConstraint=eastwest;" vertex="1" parent="7A8Va4b6gNFC_HV1zoVn-239">
          <mxGeometry y="26" width="610" height="26" as="geometry" />
        </mxCell>
        <mxCell id="7A8Va4b6gNFC_HV1zoVn-241" value="Especie" style="swimlane;fontStyle=1;childLayout=stackLayout;horizontal=1;startSize=26;horizontalStack=0;resizeParent=1;resizeParentMax=0;resizeLast=0;collapsible=1;marginBottom=0;" vertex="1" parent="1">
          <mxGeometry x="-560" y="1910" width="320" height="52" as="geometry" />
        </mxCell>
        <mxCell id="7A8Va4b6gNFC_HV1zoVn-242" value="INFESTANS, SORDIDA, GUASAYANA, NO_DEFINIDA" style="text;strokeColor=none;fillColor=none;align=left;verticalAlign=top;spacingLeft=4;spacingRight=4;overflow=hidden;rotatable=0;points=[[0,0.5],[1,0.5]];portConstraint=eastwest;" vertex="1" parent="7A8Va4b6gNFC_HV1zoVn-241">
          <mxGeometry y="26" width="320" height="26" as="geometry" />
        </mxCell>
        <mxCell id="7A8Va4b6gNFC_HV1zoVn-387" style="edgeStyle=orthogonalEdgeStyle;rounded=0;orthogonalLoop=1;jettySize=auto;html=1;exitX=0.5;exitY=1;exitDx=0;exitDy=0;entryX=0.5;entryY=0;entryDx=0;entryDy=0;dashed=1;endArrow=none;endFill=0;startArrow=block;startFill=0;" edge="1" parent="1" source="7A8Va4b6gNFC_HV1zoVn-243" target="7A8Va4b6gNFC_HV1zoVn-367">
          <mxGeometry relative="1" as="geometry" />
        </mxCell>
        <mxCell id="7A8Va4b6gNFC_HV1zoVn-243" value="EstadoMuestra" style="swimlane;fontStyle=3;childLayout=stackLayout;horizontal=1;startSize=26;horizontalStack=0;resizeParent=1;resizeParentMax=0;resizeLast=0;collapsible=1;marginBottom=0;" vertex="1" parent="1">
          <mxGeometry x="-15" y="2113" width="260" height="208" as="geometry" />
        </mxCell>
        <mxCell id="7A8Va4b6gNFC_HV1zoVn-244" value="+ boolean esVerificada()" style="text;strokeColor=none;fillColor=none;align=left;verticalAlign=top;spacingLeft=4;spacingRight=4;overflow=hidden;rotatable=0;points=[[0,0.5],[1,0.5]];portConstraint=eastwest;" vertex="1" parent="7A8Va4b6gNFC_HV1zoVn-243">
          <mxGeometry y="26" width="260" height="26" as="geometry" />
        </mxCell>
        <mxCell id="7A8Va4b6gNFC_HV1zoVn-245" value="+ boolean esAbierta()" style="text;strokeColor=none;fillColor=none;align=left;verticalAlign=top;spacingLeft=4;spacingRight=4;overflow=hidden;rotatable=0;points=[[0,0.5],[1,0.5]];portConstraint=eastwest;" vertex="1" parent="7A8Va4b6gNFC_HV1zoVn-243">
          <mxGeometry y="52" width="260" height="26" as="geometry" />
        </mxCell>
        <mxCell id="7A8Va4b6gNFC_HV1zoVn-246" value="+ boolean esEnVerificacion()" style="text;strokeColor=none;fillColor=none;align=left;verticalAlign=top;spacingLeft=4;spacingRight=4;overflow=hidden;rotatable=0;points=[[0,0.5],[1,0.5]];portConstraint=eastwest;" vertex="1" parent="7A8Va4b6gNFC_HV1zoVn-243">
          <mxGeometry y="78" width="260" height="26" as="geometry" />
        </mxCell>
        <mxCell id="7A8Va4b6gNFC_HV1zoVn-247" value="+ void notificarSiVerificada(Muestra)" style="text;strokeColor=none;fillColor=none;align=left;verticalAlign=top;spacingLeft=4;spacingRight=4;overflow=hidden;rotatable=0;points=[[0,0.5],[1,0.5]];portConstraint=eastwest;" vertex="1" parent="7A8Va4b6gNFC_HV1zoVn-243">
          <mxGeometry y="104" width="260" height="26" as="geometry" />
        </mxCell>
        <mxCell id="7A8Va4b6gNFC_HV1zoVn-248" value="+ void agregarOpinion(Muestra, Opinion)" style="text;strokeColor=none;fillColor=none;align=left;verticalAlign=top;spacingLeft=4;spacingRight=4;overflow=hidden;rotatable=0;points=[[0,0.5],[1,0.5]];portConstraint=eastwest;" vertex="1" parent="7A8Va4b6gNFC_HV1zoVn-243">
          <mxGeometry y="130" width="260" height="26" as="geometry" />
        </mxCell>
        <mxCell id="7A8Va4b6gNFC_HV1zoVn-249" value="+ TipoOpinion getResultadoActual(Muestra)" style="text;strokeColor=none;fillColor=none;align=left;verticalAlign=top;spacingLeft=4;spacingRight=4;overflow=hidden;rotatable=0;points=[[0,0.5],[1,0.5]];portConstraint=eastwest;" vertex="1" parent="7A8Va4b6gNFC_HV1zoVn-243">
          <mxGeometry y="156" width="260" height="26" as="geometry" />
        </mxCell>
        <mxCell id="7A8Va4b6gNFC_HV1zoVn-250" value="+ String getNombreEstado()" style="text;strokeColor=none;fillColor=none;align=left;verticalAlign=top;spacingLeft=4;spacingRight=4;overflow=hidden;rotatable=0;points=[[0,0.5],[1,0.5]];portConstraint=eastwest;" vertex="1" parent="7A8Va4b6gNFC_HV1zoVn-243">
          <mxGeometry y="182" width="260" height="26" as="geometry" />
        </mxCell>
        <mxCell id="7A8Va4b6gNFC_HV1zoVn-251" value="Usuario" style="swimlane;fontStyle=1;childLayout=stackLayout;horizontal=1;startSize=26;horizontalStack=0;resizeParent=1;resizeParentMax=0;resizeLast=0;collapsible=1;marginBottom=0;" vertex="1" parent="1">
          <mxGeometry x="-1750" y="1760" width="280" height="580" as="geometry" />
        </mxCell>
        <mxCell id="7A8Va4b6gNFC_HV1zoVn-252" value="- String nombre" style="text;strokeColor=none;fillColor=none;align=left;verticalAlign=top;spacingLeft=4;spacingRight=4;overflow=hidden;rotatable=0;points=[[0,0.5],[1,0.5]];portConstraint=eastwest;" vertex="1" parent="7A8Va4b6gNFC_HV1zoVn-251">
          <mxGeometry y="26" width="280" height="26" as="geometry" />
        </mxCell>
        <mxCell id="7A8Va4b6gNFC_HV1zoVn-253" value="- String email" style="text;strokeColor=none;fillColor=none;align=left;verticalAlign=top;spacingLeft=4;spacingRight=4;overflow=hidden;rotatable=0;points=[[0,0.5],[1,0.5]];portConstraint=eastwest;" vertex="1" parent="7A8Va4b6gNFC_HV1zoVn-251">
          <mxGeometry y="52" width="280" height="26" as="geometry" />
        </mxCell>
        <mxCell id="7A8Va4b6gNFC_HV1zoVn-254" value="- EstadoUsuario estado" style="text;strokeColor=none;fillColor=none;align=left;verticalAlign=top;spacingLeft=4;spacingRight=4;overflow=hidden;rotatable=0;points=[[0,0.5],[1,0.5]];portConstraint=eastwest;" vertex="1" parent="7A8Va4b6gNFC_HV1zoVn-251">
          <mxGeometry y="78" width="280" height="26" as="geometry" />
        </mxCell>
        <mxCell id="7A8Va4b6gNFC_HV1zoVn-255" value="- List&lt;Muestra&gt; envios" style="text;strokeColor=none;fillColor=none;align=left;verticalAlign=top;spacingLeft=4;spacingRight=4;overflow=hidden;rotatable=0;points=[[0,0.5],[1,0.5]];portConstraint=eastwest;" vertex="1" parent="7A8Va4b6gNFC_HV1zoVn-251">
          <mxGeometry y="104" width="280" height="26" as="geometry" />
        </mxCell>
        <mxCell id="7A8Va4b6gNFC_HV1zoVn-256" value="- List&lt;Opinion&gt; revisiones" style="text;strokeColor=none;fillColor=none;align=left;verticalAlign=top;spacingLeft=4;spacingRight=4;overflow=hidden;rotatable=0;points=[[0,0.5],[1,0.5]];portConstraint=eastwest;" vertex="1" parent="7A8Va4b6gNFC_HV1zoVn-251">
          <mxGeometry y="130" width="280" height="26" as="geometry" />
        </mxCell>
        <mxCell id="7A8Va4b6gNFC_HV1zoVn-257" value="" style="line;strokeWidth=1;fillColor=none;align=left;verticalAlign=middle;spacingTop=-1;spacingLeft=3;spacingRight=3;rotatable=0;labelPosition=right;points=[];portConstraint=eastwest;" vertex="1" parent="7A8Va4b6gNFC_HV1zoVn-251">
          <mxGeometry y="156" width="280" height="8" as="geometry" />
        </mxCell>
        <mxCell id="7A8Va4b6gNFC_HV1zoVn-258" value="+ Usuario(String, String)" style="text;strokeColor=none;fillColor=none;align=left;verticalAlign=top;spacingLeft=4;spacingRight=4;overflow=hidden;rotatable=0;points=[[0,0.5],[1,0.5]];portConstraint=eastwest;" vertex="1" parent="7A8Va4b6gNFC_HV1zoVn-251">
          <mxGeometry y="164" width="280" height="26" as="geometry" />
        </mxCell>
        <mxCell id="7A8Va4b6gNFC_HV1zoVn-259" value="+ Usuario(String, String, boolean)" style="text;strokeColor=none;fillColor=none;align=left;verticalAlign=top;spacingLeft=4;spacingRight=4;overflow=hidden;rotatable=0;points=[[0,0.5],[1,0.5]];portConstraint=eastwest;" vertex="1" parent="7A8Va4b6gNFC_HV1zoVn-251">
          <mxGeometry y="190" width="280" height="26" as="geometry" />
        </mxCell>
        <mxCell id="7A8Va4b6gNFC_HV1zoVn-260" value="+ boolean esExperto()" style="text;strokeColor=none;fillColor=none;align=left;verticalAlign=top;spacingLeft=4;spacingRight=4;overflow=hidden;rotatable=0;points=[[0,0.5],[1,0.5]];portConstraint=eastwest;" vertex="1" parent="7A8Va4b6gNFC_HV1zoVn-251">
          <mxGeometry y="216" width="280" height="26" as="geometry" />
        </mxCell>
        <mxCell id="7A8Va4b6gNFC_HV1zoVn-261" value="+ boolean esEspecialista()" style="text;strokeColor=none;fillColor=none;align=left;verticalAlign=top;spacingLeft=4;spacingRight=4;overflow=hidden;rotatable=0;points=[[0,0.5],[1,0.5]];portConstraint=eastwest;" vertex="1" parent="7A8Va4b6gNFC_HV1zoVn-251">
          <mxGeometry y="242" width="280" height="26" as="geometry" />
        </mxCell>
        <mxCell id="7A8Va4b6gNFC_HV1zoVn-262" value="+ boolean cumpleRequisitosDeExperto()" style="text;strokeColor=none;fillColor=none;align=left;verticalAlign=top;spacingLeft=4;spacingRight=4;overflow=hidden;rotatable=0;points=[[0,0.5],[1,0.5]];portConstraint=eastwest;" vertex="1" parent="7A8Va4b6gNFC_HV1zoVn-251">
          <mxGeometry y="268" width="280" height="26" as="geometry" />
        </mxCell>
        <mxCell id="7A8Va4b6gNFC_HV1zoVn-263" value="+ void evaluarPromocion()" style="text;strokeColor=none;fillColor=none;align=left;verticalAlign=top;spacingLeft=4;spacingRight=4;overflow=hidden;rotatable=0;points=[[0,0.5],[1,0.5]];portConstraint=eastwest;" vertex="1" parent="7A8Va4b6gNFC_HV1zoVn-251">
          <mxGeometry y="294" width="280" height="26" as="geometry" />
        </mxCell>
        <mxCell id="7A8Va4b6gNFC_HV1zoVn-264" value="+ void enviarMuestra(Muestra)" style="text;strokeColor=none;fillColor=none;align=left;verticalAlign=top;spacingLeft=4;spacingRight=4;overflow=hidden;rotatable=0;points=[[0,0.5],[1,0.5]];portConstraint=eastwest;" vertex="1" parent="7A8Va4b6gNFC_HV1zoVn-251">
          <mxGeometry y="320" width="280" height="26" as="geometry" />
        </mxCell>
        <mxCell id="7A8Va4b6gNFC_HV1zoVn-265" value="+ void opinar(Muestra, TipoOpinion)" style="text;strokeColor=none;fillColor=none;align=left;verticalAlign=top;spacingLeft=4;spacingRight=4;overflow=hidden;rotatable=0;points=[[0,0.5],[1,0.5]];portConstraint=eastwest;" vertex="1" parent="7A8Va4b6gNFC_HV1zoVn-251">
          <mxGeometry y="346" width="280" height="26" as="geometry" />
        </mxCell>
        <mxCell id="7A8Va4b6gNFC_HV1zoVn-266" value="+ String getNombre()" style="text;strokeColor=none;fillColor=none;align=left;verticalAlign=top;spacingLeft=4;spacingRight=4;overflow=hidden;rotatable=0;points=[[0,0.5],[1,0.5]];portConstraint=eastwest;" vertex="1" parent="7A8Va4b6gNFC_HV1zoVn-251">
          <mxGeometry y="372" width="280" height="26" as="geometry" />
        </mxCell>
        <mxCell id="7A8Va4b6gNFC_HV1zoVn-267" value="+ String getEmail()" style="text;strokeColor=none;fillColor=none;align=left;verticalAlign=top;spacingLeft=4;spacingRight=4;overflow=hidden;rotatable=0;points=[[0,0.5],[1,0.5]];portConstraint=eastwest;" vertex="1" parent="7A8Va4b6gNFC_HV1zoVn-251">
          <mxGeometry y="398" width="280" height="26" as="geometry" />
        </mxCell>
        <mxCell id="7A8Va4b6gNFC_HV1zoVn-268" value="+ EstadoUsuario getEstado()" style="text;strokeColor=none;fillColor=none;align=left;verticalAlign=top;spacingLeft=4;spacingRight=4;overflow=hidden;rotatable=0;points=[[0,0.5],[1,0.5]];portConstraint=eastwest;" vertex="1" parent="7A8Va4b6gNFC_HV1zoVn-251">
          <mxGeometry y="424" width="280" height="26" as="geometry" />
        </mxCell>
        <mxCell id="7A8Va4b6gNFC_HV1zoVn-269" value="+ void setEstado(EstadoUsuario)" style="text;strokeColor=none;fillColor=none;align=left;verticalAlign=top;spacingLeft=4;spacingRight=4;overflow=hidden;rotatable=0;points=[[0,0.5],[1,0.5]];portConstraint=eastwest;" vertex="1" parent="7A8Va4b6gNFC_HV1zoVn-251">
          <mxGeometry y="450" width="280" height="26" as="geometry" />
        </mxCell>
        <mxCell id="7A8Va4b6gNFC_HV1zoVn-270" value="+ List&lt;Muestra&gt; getEnvios()" style="text;strokeColor=none;fillColor=none;align=left;verticalAlign=top;spacingLeft=4;spacingRight=4;overflow=hidden;rotatable=0;points=[[0,0.5],[1,0.5]];portConstraint=eastwest;" vertex="1" parent="7A8Va4b6gNFC_HV1zoVn-251">
          <mxGeometry y="476" width="280" height="26" as="geometry" />
        </mxCell>
        <mxCell id="7A8Va4b6gNFC_HV1zoVn-271" value="+ List&lt;Opinion&gt; getRevisiones()" style="text;strokeColor=none;fillColor=none;align=left;verticalAlign=top;spacingLeft=4;spacingRight=4;overflow=hidden;rotatable=0;points=[[0,0.5],[1,0.5]];portConstraint=eastwest;" vertex="1" parent="7A8Va4b6gNFC_HV1zoVn-251">
          <mxGeometry y="502" width="280" height="26" as="geometry" />
        </mxCell>
        <mxCell id="7A8Va4b6gNFC_HV1zoVn-272" value="+ long cantidadMuestrasRecientes(LocalDate)" style="text;strokeColor=none;fillColor=none;align=left;verticalAlign=top;spacingLeft=4;spacingRight=4;overflow=hidden;rotatable=0;points=[[0,0.5],[1,0.5]];portConstraint=eastwest;" vertex="1" parent="7A8Va4b6gNFC_HV1zoVn-251">
          <mxGeometry y="528" width="280" height="26" as="geometry" />
        </mxCell>
        <mxCell id="7A8Va4b6gNFC_HV1zoVn-273" value="+ long cantidadRevisionesRecientes(LocalDate)" style="text;strokeColor=none;fillColor=none;align=left;verticalAlign=top;spacingLeft=4;spacingRight=4;overflow=hidden;rotatable=0;points=[[0,0.5],[1,0.5]];portConstraint=eastwest;" vertex="1" parent="7A8Va4b6gNFC_HV1zoVn-251">
          <mxGeometry y="554" width="280" height="26" as="geometry" />
        </mxCell>
        <mxCell id="7A8Va4b6gNFC_HV1zoVn-433" value="estado" style="edgeStyle=orthogonalEdgeStyle;rounded=0;orthogonalLoop=1;jettySize=auto;html=1;exitX=0.5;exitY=0;exitDx=0;exitDy=0;entryX=1;entryY=0.5;entryDx=0;entryDy=0;endArrow=none;startFill=1;startArrow=classic;" edge="1" parent="1" source="7A8Va4b6gNFC_HV1zoVn-274" target="7A8Va4b6gNFC_HV1zoVn-255">
          <mxGeometry relative="1" as="geometry" />
        </mxCell>
        <mxCell id="7A8Va4b6gNFC_HV1zoVn-274" value="EstadoUsuario" style="swimlane;fontStyle=3;childLayout=stackLayout;horizontal=1;startSize=26;horizontalStack=0;resizeParent=1;resizeParentMax=0;resizeLast=0;collapsible=1;marginBottom=0;" vertex="1" parent="1">
          <mxGeometry x="-1080" y="1920" width="210" height="104" as="geometry" />
        </mxCell>
        <mxCell id="7A8Va4b6gNFC_HV1zoVn-275" value="+ boolean esExperto()" style="text;strokeColor=none;fillColor=none;align=left;verticalAlign=top;spacingLeft=4;spacingRight=4;overflow=hidden;rotatable=0;points=[[0,0.5],[1,0.5]];portConstraint=eastwest;" vertex="1" parent="7A8Va4b6gNFC_HV1zoVn-274">
          <mxGeometry y="26" width="210" height="26" as="geometry" />
        </mxCell>
        <mxCell id="7A8Va4b6gNFC_HV1zoVn-276" value="+ boolean esEspecialista()" style="text;strokeColor=none;fillColor=none;align=left;verticalAlign=top;spacingLeft=4;spacingRight=4;overflow=hidden;rotatable=0;points=[[0,0.5],[1,0.5]];portConstraint=eastwest;" vertex="1" parent="7A8Va4b6gNFC_HV1zoVn-274">
          <mxGeometry y="52" width="210" height="26" as="geometry" />
        </mxCell>
        <mxCell id="7A8Va4b6gNFC_HV1zoVn-277" value="+ void evaluarPromocion(Usuario)" style="text;strokeColor=none;fillColor=none;align=left;verticalAlign=top;spacingLeft=4;spacingRight=4;overflow=hidden;rotatable=0;points=[[0,0.5],[1,0.5]];portConstraint=eastwest;" vertex="1" parent="7A8Va4b6gNFC_HV1zoVn-274">
          <mxGeometry y="78" width="210" height="26" as="geometry" />
        </mxCell>
        <mxCell id="7A8Va4b6gNFC_HV1zoVn-278" value="Organizacion" style="swimlane;fontStyle=1;childLayout=stackLayout;horizontal=1;startSize=26;horizontalStack=0;resizeParent=1;resizeParentMax=0;resizeLast=0;collapsible=1;marginBottom=0;" vertex="1" parent="1">
          <mxGeometry x="1390" y="1480" width="360" height="502" as="geometry" />
        </mxCell>
        <mxCell id="7A8Va4b6gNFC_HV1zoVn-279" value="- String nombre" style="text;strokeColor=none;fillColor=none;align=left;verticalAlign=top;spacingLeft=4;spacingRight=4;overflow=hidden;rotatable=0;points=[[0,0.5],[1,0.5]];portConstraint=eastwest;" vertex="1" parent="7A8Va4b6gNFC_HV1zoVn-278">
          <mxGeometry y="26" width="360" height="26" as="geometry" />
        </mxCell>
        <mxCell id="7A8Va4b6gNFC_HV1zoVn-280" value="- Ubicacion ubicacion" style="text;strokeColor=none;fillColor=none;align=left;verticalAlign=top;spacingLeft=4;spacingRight=4;overflow=hidden;rotatable=0;points=[[0,0.5],[1,0.5]];portConstraint=eastwest;" vertex="1" parent="7A8Va4b6gNFC_HV1zoVn-278">
          <mxGeometry y="52" width="360" height="26" as="geometry" />
        </mxCell>
        <mxCell id="7A8Va4b6gNFC_HV1zoVn-281" value="- TipoOrganizacion tipo" style="text;strokeColor=none;fillColor=none;align=left;verticalAlign=top;spacingLeft=4;spacingRight=4;overflow=hidden;rotatable=0;points=[[0,0.5],[1,0.5]];portConstraint=eastwest;" vertex="1" parent="7A8Va4b6gNFC_HV1zoVn-278">
          <mxGeometry y="78" width="360" height="26" as="geometry" />
        </mxCell>
        <mxCell id="7A8Va4b6gNFC_HV1zoVn-444" style="edgeStyle=orthogonalEdgeStyle;rounded=0;orthogonalLoop=1;jettySize=auto;html=1;exitX=1;exitY=0.5;exitDx=0;exitDy=0;endArrow=none;startFill=0;" edge="1" parent="7A8Va4b6gNFC_HV1zoVn-278" source="7A8Va4b6gNFC_HV1zoVn-282">
          <mxGeometry relative="1" as="geometry">
            <mxPoint x="460" y="117.11111111111086" as="targetPoint" />
          </mxGeometry>
        </mxCell>
        <mxCell id="7A8Va4b6gNFC_HV1zoVn-282" value="- int cantidadEmpleados" style="text;strokeColor=none;fillColor=none;align=left;verticalAlign=top;spacingLeft=4;spacingRight=4;overflow=hidden;rotatable=0;points=[[0,0.5],[1,0.5]];portConstraint=eastwest;" vertex="1" parent="7A8Va4b6gNFC_HV1zoVn-278">
          <mxGeometry y="104" width="360" height="26" as="geometry" />
        </mxCell>
        <mxCell id="7A8Va4b6gNFC_HV1zoVn-283" value="- List&lt;ZonaDeCobertura&gt; zonas" style="text;strokeColor=none;fillColor=none;align=left;verticalAlign=top;spacingLeft=4;spacingRight=4;overflow=hidden;rotatable=0;points=[[0,0.5],[1,0.5]];portConstraint=eastwest;" vertex="1" parent="7A8Va4b6gNFC_HV1zoVn-278">
          <mxGeometry y="130" width="360" height="26" as="geometry" />
        </mxCell>
        <mxCell id="7A8Va4b6gNFC_HV1zoVn-284" value="- FuncionalidadExterna funcionalidadNuevaMuestra" style="text;strokeColor=none;fillColor=none;align=left;verticalAlign=top;spacingLeft=4;spacingRight=4;overflow=hidden;rotatable=0;points=[[0,0.5],[1,0.5]];portConstraint=eastwest;" vertex="1" parent="7A8Va4b6gNFC_HV1zoVn-278">
          <mxGeometry y="156" width="360" height="26" as="geometry" />
        </mxCell>
        <mxCell id="7A8Va4b6gNFC_HV1zoVn-388" style="edgeStyle=orthogonalEdgeStyle;rounded=0;orthogonalLoop=1;jettySize=auto;html=1;exitX=0;exitY=0.5;exitDx=0;exitDy=0;endArrow=none;startFill=0;" edge="1" parent="7A8Va4b6gNFC_HV1zoVn-278" source="7A8Va4b6gNFC_HV1zoVn-285">
          <mxGeometry relative="1" as="geometry">
            <mxPoint x="-590" y="450" as="targetPoint" />
          </mxGeometry>
        </mxCell>
        <mxCell id="7A8Va4b6gNFC_HV1zoVn-285" value="- FuncionalidadExterna funcionalidadValidacion" style="text;strokeColor=none;fillColor=none;align=left;verticalAlign=top;spacingLeft=4;spacingRight=4;overflow=hidden;rotatable=0;points=[[0,0.5],[1,0.5]];portConstraint=eastwest;" vertex="1" parent="7A8Va4b6gNFC_HV1zoVn-278">
          <mxGeometry y="182" width="360" height="26" as="geometry" />
        </mxCell>
        <mxCell id="7A8Va4b6gNFC_HV1zoVn-286" value="" style="line;strokeWidth=1;fillColor=none;align=left;verticalAlign=middle;spacingTop=-1;spacingLeft=3;spacingRight=3;rotatable=0;labelPosition=right;points=[];portConstraint=eastwest;" vertex="1" parent="7A8Va4b6gNFC_HV1zoVn-278">
          <mxGeometry y="208" width="360" height="8" as="geometry" />
        </mxCell>
        <mxCell id="7A8Va4b6gNFC_HV1zoVn-287" value="+ Organizacion(String, Ubicacion, TipoOrganizacion, int)" style="text;strokeColor=none;fillColor=none;align=left;verticalAlign=top;spacingLeft=4;spacingRight=4;overflow=hidden;rotatable=0;points=[[0,0.5],[1,0.5]];portConstraint=eastwest;" vertex="1" parent="7A8Va4b6gNFC_HV1zoVn-278">
          <mxGeometry y="216" width="360" height="26" as="geometry" />
        </mxCell>
        <mxCell id="7A8Va4b6gNFC_HV1zoVn-288" value="+ void agregarZona(ZonaDeCobertura)" style="text;strokeColor=none;fillColor=none;align=left;verticalAlign=top;spacingLeft=4;spacingRight=4;overflow=hidden;rotatable=0;points=[[0,0.5],[1,0.5]];portConstraint=eastwest;" vertex="1" parent="7A8Va4b6gNFC_HV1zoVn-278">
          <mxGeometry y="242" width="360" height="26" as="geometry" />
        </mxCell>
        <mxCell id="7A8Va4b6gNFC_HV1zoVn-289" value="+ void setFuncionalidadNuevaMuestra(FuncionalidadExterna)" style="text;strokeColor=none;fillColor=none;align=left;verticalAlign=top;spacingLeft=4;spacingRight=4;overflow=hidden;rotatable=0;points=[[0,0.5],[1,0.5]];portConstraint=eastwest;" vertex="1" parent="7A8Va4b6gNFC_HV1zoVn-278">
          <mxGeometry y="268" width="360" height="26" as="geometry" />
        </mxCell>
        <mxCell id="7A8Va4b6gNFC_HV1zoVn-290" value="+ void setFuncionalidadValidacion(FuncionalidadExterna)" style="text;strokeColor=none;fillColor=none;align=left;verticalAlign=top;spacingLeft=4;spacingRight=4;overflow=hidden;rotatable=0;points=[[0,0.5],[1,0.5]];portConstraint=eastwest;" vertex="1" parent="7A8Va4b6gNFC_HV1zoVn-278">
          <mxGeometry y="294" width="360" height="26" as="geometry" />
        </mxCell>
        <mxCell id="7A8Va4b6gNFC_HV1zoVn-291" value="+ void notificarNuevaMuestra(ZonaDeCobertura, Muestra)" style="text;strokeColor=none;fillColor=none;align=left;verticalAlign=top;spacingLeft=4;spacingRight=4;overflow=hidden;rotatable=0;points=[[0,0.5],[1,0.5]];portConstraint=eastwest;" vertex="1" parent="7A8Va4b6gNFC_HV1zoVn-278">
          <mxGeometry y="320" width="360" height="26" as="geometry" />
        </mxCell>
        <mxCell id="7A8Va4b6gNFC_HV1zoVn-292" value="+ void notificarValidacion(ZonaDeCobertura, Muestra)" style="text;strokeColor=none;fillColor=none;align=left;verticalAlign=top;spacingLeft=4;spacingRight=4;overflow=hidden;rotatable=0;points=[[0,0.5],[1,0.5]];portConstraint=eastwest;" vertex="1" parent="7A8Va4b6gNFC_HV1zoVn-278">
          <mxGeometry y="346" width="360" height="26" as="geometry" />
        </mxCell>
        <mxCell id="7A8Va4b6gNFC_HV1zoVn-293" value="+ String getNombre()" style="text;strokeColor=none;fillColor=none;align=left;verticalAlign=top;spacingLeft=4;spacingRight=4;overflow=hidden;rotatable=0;points=[[0,0.5],[1,0.5]];portConstraint=eastwest;" vertex="1" parent="7A8Va4b6gNFC_HV1zoVn-278">
          <mxGeometry y="372" width="360" height="26" as="geometry" />
        </mxCell>
        <mxCell id="7A8Va4b6gNFC_HV1zoVn-294" value="+ Ubicacion getUbicacion()" style="text;strokeColor=none;fillColor=none;align=left;verticalAlign=top;spacingLeft=4;spacingRight=4;overflow=hidden;rotatable=0;points=[[0,0.5],[1,0.5]];portConstraint=eastwest;" vertex="1" parent="7A8Va4b6gNFC_HV1zoVn-278">
          <mxGeometry y="398" width="360" height="26" as="geometry" />
        </mxCell>
        <mxCell id="7A8Va4b6gNFC_HV1zoVn-295" value="+ TipoOrganizacion getTipo()" style="text;strokeColor=none;fillColor=none;align=left;verticalAlign=top;spacingLeft=4;spacingRight=4;overflow=hidden;rotatable=0;points=[[0,0.5],[1,0.5]];portConstraint=eastwest;" vertex="1" parent="7A8Va4b6gNFC_HV1zoVn-278">
          <mxGeometry y="424" width="360" height="26" as="geometry" />
        </mxCell>
        <mxCell id="7A8Va4b6gNFC_HV1zoVn-296" value="+ int getCantidadEmpleados()" style="text;strokeColor=none;fillColor=none;align=left;verticalAlign=top;spacingLeft=4;spacingRight=4;overflow=hidden;rotatable=0;points=[[0,0.5],[1,0.5]];portConstraint=eastwest;" vertex="1" parent="7A8Va4b6gNFC_HV1zoVn-278">
          <mxGeometry y="450" width="360" height="26" as="geometry" />
        </mxCell>
        <mxCell id="7A8Va4b6gNFC_HV1zoVn-297" value="+ List&lt;ZonaDeCobertura&gt; getZonas()" style="text;strokeColor=none;fillColor=none;align=left;verticalAlign=top;spacingLeft=4;spacingRight=4;overflow=hidden;rotatable=0;points=[[0,0.5],[1,0.5]];portConstraint=eastwest;" vertex="1" parent="7A8Va4b6gNFC_HV1zoVn-278">
          <mxGeometry y="476" width="360" height="26" as="geometry" />
        </mxCell>
        <mxCell id="7A8Va4b6gNFC_HV1zoVn-298" value="FuncionalidadExterna" style="swimlane;fontStyle=1;childLayout=stackLayout;horizontal=1;startSize=26;horizontalStack=0;resizeParent=1;resizeParentMax=0;resizeLast=0;collapsible=1;marginBottom=0;" vertex="1" parent="1">
          <mxGeometry x="1030" y="2131" width="360" height="52" as="geometry" />
        </mxCell>
        <mxCell id="7A8Va4b6gNFC_HV1zoVn-299" value="+ void nuevoEvento(Organizacion, ZonaDeCobertura, Muestra)" style="text;strokeColor=none;fillColor=none;align=left;verticalAlign=top;spacingLeft=4;spacingRight=4;overflow=hidden;rotatable=0;points=[[0,0.5],[1,0.5]];portConstraint=eastwest;" vertex="1" parent="7A8Va4b6gNFC_HV1zoVn-298">
          <mxGeometry y="26" width="360" height="26" as="geometry" />
        </mxCell>
        <mxCell id="7A8Va4b6gNFC_HV1zoVn-300" value="ZonaObserver" style="swimlane;fontStyle=3;childLayout=stackLayout;horizontal=1;startSize=26;horizontalStack=0;resizeParent=1;resizeParentMax=0;resizeLast=0;collapsible=1;marginBottom=0;" vertex="1" parent="1">
          <mxGeometry x="1790" y="2131" width="340" height="78" as="geometry" />
        </mxCell>
        <mxCell id="7A8Va4b6gNFC_HV1zoVn-301" value="+ void notificarNuevaMuestra(ZonaDeCobertura, Muestra)" style="text;strokeColor=none;fillColor=none;align=left;verticalAlign=top;spacingLeft=4;spacingRight=4;overflow=hidden;rotatable=0;points=[[0,0.5],[1,0.5]];portConstraint=eastwest;" vertex="1" parent="7A8Va4b6gNFC_HV1zoVn-300">
          <mxGeometry y="26" width="340" height="26" as="geometry" />
        </mxCell>
        <mxCell id="7A8Va4b6gNFC_HV1zoVn-302" value="+ void notificarValidacion(ZonaDeCobertura, Muestra)" style="text;strokeColor=none;fillColor=none;align=left;verticalAlign=top;spacingLeft=4;spacingRight=4;overflow=hidden;rotatable=0;points=[[0,0.5],[1,0.5]];portConstraint=eastwest;" vertex="1" parent="7A8Va4b6gNFC_HV1zoVn-300">
          <mxGeometry y="52" width="340" height="26" as="geometry" />
        </mxCell>
        <mxCell id="7A8Va4b6gNFC_HV1zoVn-391" style="edgeStyle=orthogonalEdgeStyle;rounded=0;orthogonalLoop=1;jettySize=auto;html=1;exitX=0.75;exitY=0;exitDx=0;exitDy=0;endArrow=none;startFill=1;startArrow=classic;" edge="1" parent="1" source="7A8Va4b6gNFC_HV1zoVn-303">
          <mxGeometry relative="1" as="geometry">
            <mxPoint x="623" y="1600" as="targetPoint" />
          </mxGeometry>
        </mxCell>
        <mxCell id="7A8Va4b6gNFC_HV1zoVn-303" value="Ubicacion" style="swimlane;fontStyle=1;childLayout=stackLayout;horizontal=1;startSize=26;horizontalStack=0;resizeParent=1;resizeParentMax=0;resizeLast=0;collapsible=1;marginBottom=0;" vertex="1" parent="1">
          <mxGeometry x="480" y="1834" width="190" height="190" as="geometry" />
        </mxCell>
        <mxCell id="7A8Va4b6gNFC_HV1zoVn-304" value="- double latitud" style="text;strokeColor=none;fillColor=none;align=left;verticalAlign=top;spacingLeft=4;spacingRight=4;overflow=hidden;rotatable=0;points=[[0,0.5],[1,0.5]];portConstraint=eastwest;" vertex="1" parent="7A8Va4b6gNFC_HV1zoVn-303">
          <mxGeometry y="26" width="190" height="26" as="geometry" />
        </mxCell>
        <mxCell id="7A8Va4b6gNFC_HV1zoVn-305" value="- double longitud" style="text;strokeColor=none;fillColor=none;align=left;verticalAlign=top;spacingLeft=4;spacingRight=4;overflow=hidden;rotatable=0;points=[[0,0.5],[1,0.5]];portConstraint=eastwest;" vertex="1" parent="7A8Va4b6gNFC_HV1zoVn-303">
          <mxGeometry y="52" width="190" height="26" as="geometry" />
        </mxCell>
        <mxCell id="7A8Va4b6gNFC_HV1zoVn-306" value="" style="line;strokeWidth=1;fillColor=none;align=left;verticalAlign=middle;spacingTop=-1;spacingLeft=3;spacingRight=3;rotatable=0;labelPosition=right;points=[];portConstraint=eastwest;" vertex="1" parent="7A8Va4b6gNFC_HV1zoVn-303">
          <mxGeometry y="78" width="190" height="8" as="geometry" />
        </mxCell>
        <mxCell id="7A8Va4b6gNFC_HV1zoVn-389" style="edgeStyle=orthogonalEdgeStyle;rounded=0;orthogonalLoop=1;jettySize=auto;html=1;exitX=1;exitY=0.5;exitDx=0;exitDy=0;endArrow=none;startFill=1;startArrow=classic;" edge="1" parent="7A8Va4b6gNFC_HV1zoVn-303" source="7A8Va4b6gNFC_HV1zoVn-307">
          <mxGeometry relative="1" as="geometry">
            <mxPoint x="320" y="99" as="targetPoint" />
          </mxGeometry>
        </mxCell>
        <mxCell id="7A8Va4b6gNFC_HV1zoVn-428" style="edgeStyle=orthogonalEdgeStyle;rounded=0;orthogonalLoop=1;jettySize=auto;html=1;exitX=0;exitY=0.5;exitDx=0;exitDy=0;endArrow=none;startFill=0;dashed=1;endFill=0;startArrow=open;" edge="1" parent="7A8Va4b6gNFC_HV1zoVn-303" source="7A8Va4b6gNFC_HV1zoVn-307">
          <mxGeometry relative="1" as="geometry">
            <mxPoint x="-60" y="86" as="targetPoint" />
            <Array as="points">
              <mxPoint x="-60" y="99" />
            </Array>
          </mxGeometry>
        </mxCell>
        <mxCell id="7A8Va4b6gNFC_HV1zoVn-307" value="+ Ubicacion(Double, Double)" style="text;strokeColor=none;fillColor=none;align=left;verticalAlign=top;spacingLeft=4;spacingRight=4;overflow=hidden;rotatable=0;points=[[0,0.5],[1,0.5]];portConstraint=eastwest;" vertex="1" parent="7A8Va4b6gNFC_HV1zoVn-303">
          <mxGeometry y="86" width="190" height="26" as="geometry" />
        </mxCell>
        <mxCell id="7A8Va4b6gNFC_HV1zoVn-308" value="+ Double getLatitud()" style="text;strokeColor=none;fillColor=none;align=left;verticalAlign=top;spacingLeft=4;spacingRight=4;overflow=hidden;rotatable=0;points=[[0,0.5],[1,0.5]];portConstraint=eastwest;" vertex="1" parent="7A8Va4b6gNFC_HV1zoVn-303">
          <mxGeometry y="112" width="190" height="26" as="geometry" />
        </mxCell>
        <mxCell id="7A8Va4b6gNFC_HV1zoVn-309" value="+ Double getLongitud()" style="text;strokeColor=none;fillColor=none;align=left;verticalAlign=top;spacingLeft=4;spacingRight=4;overflow=hidden;rotatable=0;points=[[0,0.5],[1,0.5]];portConstraint=eastwest;" vertex="1" parent="7A8Va4b6gNFC_HV1zoVn-303">
          <mxGeometry y="138" width="190" height="26" as="geometry" />
        </mxCell>
        <mxCell id="7A8Va4b6gNFC_HV1zoVn-310" value="+ double distanciaA(Ubicacion)" style="text;strokeColor=none;fillColor=none;align=left;verticalAlign=top;spacingLeft=4;spacingRight=4;overflow=hidden;rotatable=0;points=[[0,0.5],[1,0.5]];portConstraint=eastwest;" vertex="1" parent="7A8Va4b6gNFC_HV1zoVn-303">
          <mxGeometry y="164" width="190" height="26" as="geometry" />
        </mxCell>
        <mxCell id="7A8Va4b6gNFC_HV1zoVn-311" value="ZonaDeCobertura" style="swimlane;fontStyle=1;childLayout=stackLayout;horizontal=1;startSize=26;horizontalStack=0;resizeParent=1;resizeParentMax=0;resizeLast=0;collapsible=1;marginBottom=0;" vertex="1" parent="1">
          <mxGeometry x="1430" y="722" width="290" height="450" as="geometry" />
        </mxCell>
        <mxCell id="7A8Va4b6gNFC_HV1zoVn-312" value="- String nombre" style="text;strokeColor=none;fillColor=none;align=left;verticalAlign=top;spacingLeft=4;spacingRight=4;overflow=hidden;rotatable=0;points=[[0,0.5],[1,0.5]];portConstraint=eastwest;" vertex="1" parent="7A8Va4b6gNFC_HV1zoVn-311">
          <mxGeometry y="26" width="290" height="26" as="geometry" />
        </mxCell>
        <mxCell id="7A8Va4b6gNFC_HV1zoVn-313" value="- Ubicacion epicentro" style="text;strokeColor=none;fillColor=none;align=left;verticalAlign=top;spacingLeft=4;spacingRight=4;overflow=hidden;rotatable=0;points=[[0,0.5],[1,0.5]];portConstraint=eastwest;" vertex="1" parent="7A8Va4b6gNFC_HV1zoVn-311">
          <mxGeometry y="52" width="290" height="26" as="geometry" />
        </mxCell>
        <mxCell id="7A8Va4b6gNFC_HV1zoVn-314" value="- double radio" style="text;strokeColor=none;fillColor=none;align=left;verticalAlign=top;spacingLeft=4;spacingRight=4;overflow=hidden;rotatable=0;points=[[0,0.5],[1,0.5]];portConstraint=eastwest;" vertex="1" parent="7A8Va4b6gNFC_HV1zoVn-311">
          <mxGeometry y="78" width="290" height="26" as="geometry" />
        </mxCell>
        <mxCell id="7A8Va4b6gNFC_HV1zoVn-315" value="- List&lt;Muestra&gt; muestras" style="text;strokeColor=none;fillColor=none;align=left;verticalAlign=top;spacingLeft=4;spacingRight=4;overflow=hidden;rotatable=0;points=[[0,0.5],[1,0.5]];portConstraint=eastwest;" vertex="1" parent="7A8Va4b6gNFC_HV1zoVn-311">
          <mxGeometry y="104" width="290" height="26" as="geometry" />
        </mxCell>
        <mxCell id="7A8Va4b6gNFC_HV1zoVn-316" value="- List&lt;Organizacion&gt; organizacionesRegistradas" style="text;strokeColor=none;fillColor=none;align=left;verticalAlign=top;spacingLeft=4;spacingRight=4;overflow=hidden;rotatable=0;points=[[0,0.5],[1,0.5]];portConstraint=eastwest;" vertex="1" parent="7A8Va4b6gNFC_HV1zoVn-311">
          <mxGeometry y="130" width="290" height="26" as="geometry" />
        </mxCell>
        <mxCell id="7A8Va4b6gNFC_HV1zoVn-317" value="" style="line;strokeWidth=1;fillColor=none;align=left;verticalAlign=middle;spacingTop=-1;spacingLeft=3;spacingRight=3;rotatable=0;labelPosition=right;points=[];portConstraint=eastwest;" vertex="1" parent="7A8Va4b6gNFC_HV1zoVn-311">
          <mxGeometry y="156" width="290" height="8" as="geometry" />
        </mxCell>
        <mxCell id="7A8Va4b6gNFC_HV1zoVn-318" value="+ ZonaDeCobertura(String, Ubicacion, double)" style="text;strokeColor=none;fillColor=none;align=left;verticalAlign=top;spacingLeft=4;spacingRight=4;overflow=hidden;rotatable=0;points=[[0,0.5],[1,0.5]];portConstraint=eastwest;" vertex="1" parent="7A8Va4b6gNFC_HV1zoVn-311">
          <mxGeometry y="164" width="290" height="26" as="geometry" />
        </mxCell>
        <mxCell id="7A8Va4b6gNFC_HV1zoVn-319" value="+ String getNombre()" style="text;strokeColor=none;fillColor=none;align=left;verticalAlign=top;spacingLeft=4;spacingRight=4;overflow=hidden;rotatable=0;points=[[0,0.5],[1,0.5]];portConstraint=eastwest;" vertex="1" parent="7A8Va4b6gNFC_HV1zoVn-311">
          <mxGeometry y="190" width="290" height="26" as="geometry" />
        </mxCell>
        <mxCell id="7A8Va4b6gNFC_HV1zoVn-443" value="zonas *" style="edgeStyle=orthogonalEdgeStyle;rounded=0;orthogonalLoop=1;jettySize=auto;html=1;exitX=1;exitY=0.5;exitDx=0;exitDy=0;endArrow=none;startFill=1;startArrow=classic;" edge="1" parent="7A8Va4b6gNFC_HV1zoVn-311" source="7A8Va4b6gNFC_HV1zoVn-320">
          <mxGeometry relative="1" as="geometry">
            <mxPoint x="420" y="878" as="targetPoint" />
          </mxGeometry>
        </mxCell>
        <mxCell id="7A8Va4b6gNFC_HV1zoVn-320" value="+ Ubicacion getEpicentro()" style="text;strokeColor=none;fillColor=none;align=left;verticalAlign=top;spacingLeft=4;spacingRight=4;overflow=hidden;rotatable=0;points=[[0,0.5],[1,0.5]];portConstraint=eastwest;" vertex="1" parent="7A8Va4b6gNFC_HV1zoVn-311">
          <mxGeometry y="216" width="290" height="26" as="geometry" />
        </mxCell>
        <mxCell id="7A8Va4b6gNFC_HV1zoVn-321" value="+ double getRadio()" style="text;strokeColor=none;fillColor=none;align=left;verticalAlign=top;spacingLeft=4;spacingRight=4;overflow=hidden;rotatable=0;points=[[0,0.5],[1,0.5]];portConstraint=eastwest;" vertex="1" parent="7A8Va4b6gNFC_HV1zoVn-311">
          <mxGeometry y="242" width="290" height="26" as="geometry" />
        </mxCell>
        <mxCell id="7A8Va4b6gNFC_HV1zoVn-322" value="+ List&lt;Muestra&gt; getMuestras()" style="text;strokeColor=none;fillColor=none;align=left;verticalAlign=top;spacingLeft=4;spacingRight=4;overflow=hidden;rotatable=0;points=[[0,0.5],[1,0.5]];portConstraint=eastwest;" vertex="1" parent="7A8Va4b6gNFC_HV1zoVn-311">
          <mxGeometry y="268" width="290" height="26" as="geometry" />
        </mxCell>
        <mxCell id="7A8Va4b6gNFC_HV1zoVn-323" value="+ boolean contiene(Ubicacion)" style="text;strokeColor=none;fillColor=none;align=left;verticalAlign=top;spacingLeft=4;spacingRight=4;overflow=hidden;rotatable=0;points=[[0,0.5],[1,0.5]];portConstraint=eastwest;" vertex="1" parent="7A8Va4b6gNFC_HV1zoVn-311">
          <mxGeometry y="294" width="290" height="26" as="geometry" />
        </mxCell>
        <mxCell id="7A8Va4b6gNFC_HV1zoVn-324" value="+ boolean seSuperponeCon(ZonaDeCobertura)" style="text;strokeColor=none;fillColor=none;align=left;verticalAlign=top;spacingLeft=4;spacingRight=4;overflow=hidden;rotatable=0;points=[[0,0.5],[1,0.5]];portConstraint=eastwest;" vertex="1" parent="7A8Va4b6gNFC_HV1zoVn-311">
          <mxGeometry y="320" width="290" height="26" as="geometry" />
        </mxCell>
        <mxCell id="7A8Va4b6gNFC_HV1zoVn-325" value="+ void agregarMuestra(Muestra)" style="text;strokeColor=none;fillColor=none;align=left;verticalAlign=top;spacingLeft=4;spacingRight=4;overflow=hidden;rotatable=0;points=[[0,0.5],[1,0.5]];portConstraint=eastwest;" vertex="1" parent="7A8Va4b6gNFC_HV1zoVn-311">
          <mxGeometry y="346" width="290" height="26" as="geometry" />
        </mxCell>
        <mxCell id="7A8Va4b6gNFC_HV1zoVn-326" value="+ void muestraVerificada(Muestra)" style="text;strokeColor=none;fillColor=none;align=left;verticalAlign=top;spacingLeft=4;spacingRight=4;overflow=hidden;rotatable=0;points=[[0,0.5],[1,0.5]];portConstraint=eastwest;" vertex="1" parent="7A8Va4b6gNFC_HV1zoVn-311">
          <mxGeometry y="372" width="290" height="26" as="geometry" />
        </mxCell>
        <mxCell id="7A8Va4b6gNFC_HV1zoVn-327" value="+ void registrarOrganizacion(Organizacion)" style="text;strokeColor=none;fillColor=none;align=left;verticalAlign=top;spacingLeft=4;spacingRight=4;overflow=hidden;rotatable=0;points=[[0,0.5],[1,0.5]];portConstraint=eastwest;" vertex="1" parent="7A8Va4b6gNFC_HV1zoVn-311">
          <mxGeometry y="398" width="290" height="26" as="geometry" />
        </mxCell>
        <mxCell id="7A8Va4b6gNFC_HV1zoVn-328" value="+ void desregistrarOrganizacion(Organizacion)" style="text;strokeColor=none;fillColor=none;align=left;verticalAlign=top;spacingLeft=4;spacingRight=4;overflow=hidden;rotatable=0;points=[[0,0.5],[1,0.5]];portConstraint=eastwest;" vertex="1" parent="7A8Va4b6gNFC_HV1zoVn-311">
          <mxGeometry y="424" width="290" height="26" as="geometry" />
        </mxCell>
        <mxCell id="7A8Va4b6gNFC_HV1zoVn-329" value="CalculadoraDistancia" style="swimlane;fontStyle=1;childLayout=stackLayout;horizontal=1;startSize=26;horizontalStack=0;resizeParent=1;resizeParentMax=0;resizeLast=0;collapsible=1;marginBottom=0;" vertex="1" parent="1">
          <mxGeometry x="-380" y="310" width="450" height="138" as="geometry" />
        </mxCell>
        <mxCell id="7A8Va4b6gNFC_HV1zoVn-330" value="- static Double radioTierra" style="text;strokeColor=none;fillColor=none;align=left;verticalAlign=top;spacingLeft=4;spacingRight=4;overflow=hidden;rotatable=0;points=[[0,0.5],[1,0.5]];portConstraint=eastwest;" vertex="1" parent="7A8Va4b6gNFC_HV1zoVn-329">
          <mxGeometry y="26" width="450" height="26" as="geometry" />
        </mxCell>
        <mxCell id="7A8Va4b6gNFC_HV1zoVn-331" value="" style="line;strokeWidth=1;fillColor=none;align=left;verticalAlign=middle;spacingTop=-1;spacingLeft=3;spacingRight=3;rotatable=0;labelPosition=right;points=[];portConstraint=eastwest;" vertex="1" parent="7A8Va4b6gNFC_HV1zoVn-329">
          <mxGeometry y="52" width="450" height="8" as="geometry" />
        </mxCell>
        <mxCell id="7A8Va4b6gNFC_HV1zoVn-427" value="usa" style="edgeStyle=orthogonalEdgeStyle;rounded=0;orthogonalLoop=1;jettySize=auto;html=1;exitX=1;exitY=0.5;exitDx=0;exitDy=0;endArrow=none;startFill=0;dashed=1;" edge="1" parent="7A8Va4b6gNFC_HV1zoVn-329" source="7A8Va4b6gNFC_HV1zoVn-332">
          <mxGeometry relative="1" as="geometry">
            <mxPoint x="800" y="1610" as="targetPoint" />
          </mxGeometry>
        </mxCell>
        <mxCell id="7A8Va4b6gNFC_HV1zoVn-332" value="+ static Double calcularDistanciaEntreUbicaciones(Ubicacion, Ubicacion)" style="text;strokeColor=none;fillColor=none;align=left;verticalAlign=top;spacingLeft=4;spacingRight=4;overflow=hidden;rotatable=0;points=[[0,0.5],[1,0.5]];portConstraint=eastwest;" vertex="1" parent="7A8Va4b6gNFC_HV1zoVn-329">
          <mxGeometry y="60" width="450" height="26" as="geometry" />
        </mxCell>
        <mxCell id="7A8Va4b6gNFC_HV1zoVn-333" value="+ static Boolean seSuperponenLasZonas(ZonaDeCobertura, ZonaDeCobertura)" style="text;strokeColor=none;fillColor=none;align=left;verticalAlign=top;spacingLeft=4;spacingRight=4;overflow=hidden;rotatable=0;points=[[0,0.5],[1,0.5]];portConstraint=eastwest;" vertex="1" parent="7A8Va4b6gNFC_HV1zoVn-329">
          <mxGeometry y="86" width="450" height="26" as="geometry" />
        </mxCell>
        <mxCell id="7A8Va4b6gNFC_HV1zoVn-334" value="+ static Boolean ubicacionEstaDentroDeZona(Ubicacion, ZonaDeCobertura)" style="text;strokeColor=none;fillColor=none;align=left;verticalAlign=top;spacingLeft=4;spacingRight=4;overflow=hidden;rotatable=0;points=[[0,0.5],[1,0.5]];portConstraint=eastwest;" vertex="1" parent="7A8Va4b6gNFC_HV1zoVn-329">
          <mxGeometry y="112" width="450" height="26" as="geometry" />
        </mxCell>
        <mxCell id="7A8Va4b6gNFC_HV1zoVn-335" value="BuscadorMuestra" style="swimlane;fontStyle=1;childLayout=stackLayout;horizontal=1;startSize=26;horizontalStack=0;resizeParent=1;resizeParentMax=0;resizeLast=0;collapsible=1;marginBottom=0;" vertex="1" parent="1">
          <mxGeometry x="-1070" y="590" width="270" height="52" as="geometry" />
        </mxCell>
        <mxCell id="7A8Va4b6gNFC_HV1zoVn-336" value="+ List&lt;Muestra&gt; buscar(List&lt;Muestra&gt;, Filtro)" style="text;strokeColor=none;fillColor=none;align=left;verticalAlign=top;spacingLeft=4;spacingRight=4;overflow=hidden;rotatable=0;points=[[0,0.5],[1,0.5]];portConstraint=eastwest;" vertex="1" parent="7A8Va4b6gNFC_HV1zoVn-335">
          <mxGeometry y="26" width="270" height="26" as="geometry" />
        </mxCell>
        <mxCell id="7A8Va4b6gNFC_HV1zoVn-423" style="edgeStyle=orthogonalEdgeStyle;rounded=0;orthogonalLoop=1;jettySize=auto;html=1;exitX=0.5;exitY=1;exitDx=0;exitDy=0;entryX=0.5;entryY=0;entryDx=0;entryDy=0;dashed=1;endArrow=none;startFill=0;startArrow=block;" edge="1" parent="1" source="7A8Va4b6gNFC_HV1zoVn-337" target="7A8Va4b6gNFC_HV1zoVn-345">
          <mxGeometry relative="1" as="geometry" />
        </mxCell>
        <mxCell id="7A8Va4b6gNFC_HV1zoVn-337" value="Filtro" style="swimlane;fontStyle=3;childLayout=stackLayout;horizontal=1;startSize=26;horizontalStack=0;resizeParent=1;resizeParentMax=0;resizeLast=0;collapsible=1;marginBottom=0;" vertex="1" parent="1">
          <mxGeometry x="-1430" y="890" width="170" height="52" as="geometry" />
        </mxCell>
        <mxCell id="7A8Va4b6gNFC_HV1zoVn-338" value="+ boolean aplica(Muestra)" style="text;strokeColor=none;fillColor=none;align=left;verticalAlign=top;spacingLeft=4;spacingRight=4;overflow=hidden;rotatable=0;points=[[0,0.5],[1,0.5]];portConstraint=eastwest;" vertex="1" parent="7A8Va4b6gNFC_HV1zoVn-337">
          <mxGeometry y="26" width="170" height="26" as="geometry" />
        </mxCell>
        <mxCell id="7A8Va4b6gNFC_HV1zoVn-339" value="FiltroAnd" style="swimlane;fontStyle=1;childLayout=stackLayout;horizontal=1;startSize=26;horizontalStack=0;resizeParent=1;resizeParentMax=0;resizeLast=0;collapsible=1;marginBottom=0;" vertex="1" parent="1">
          <mxGeometry x="-1760" y="1052" width="170" height="138" as="geometry" />
        </mxCell>
        <mxCell id="7A8Va4b6gNFC_HV1zoVn-340" value="- Filtro filtro1" style="text;strokeColor=none;fillColor=none;align=left;verticalAlign=top;spacingLeft=4;spacingRight=4;overflow=hidden;rotatable=0;points=[[0,0.5],[1,0.5]];portConstraint=eastwest;" vertex="1" parent="7A8Va4b6gNFC_HV1zoVn-339">
          <mxGeometry y="26" width="170" height="26" as="geometry" />
        </mxCell>
        <mxCell id="7A8Va4b6gNFC_HV1zoVn-341" value="- Filtro filtro2" style="text;strokeColor=none;fillColor=none;align=left;verticalAlign=top;spacingLeft=4;spacingRight=4;overflow=hidden;rotatable=0;points=[[0,0.5],[1,0.5]];portConstraint=eastwest;" vertex="1" parent="7A8Va4b6gNFC_HV1zoVn-339">
          <mxGeometry y="52" width="170" height="26" as="geometry" />
        </mxCell>
        <mxCell id="7A8Va4b6gNFC_HV1zoVn-342" value="" style="line;strokeWidth=1;fillColor=none;align=left;verticalAlign=middle;spacingTop=-1;spacingLeft=3;spacingRight=3;rotatable=0;labelPosition=right;points=[];portConstraint=eastwest;" vertex="1" parent="7A8Va4b6gNFC_HV1zoVn-339">
          <mxGeometry y="78" width="170" height="8" as="geometry" />
        </mxCell>
        <mxCell id="7A8Va4b6gNFC_HV1zoVn-343" value="+ FiltroAnd(Filtro, Filtro)" style="text;strokeColor=none;fillColor=none;align=left;verticalAlign=top;spacingLeft=4;spacingRight=4;overflow=hidden;rotatable=0;points=[[0,0.5],[1,0.5]];portConstraint=eastwest;" vertex="1" parent="7A8Va4b6gNFC_HV1zoVn-339">
          <mxGeometry y="86" width="170" height="26" as="geometry" />
        </mxCell>
        <mxCell id="7A8Va4b6gNFC_HV1zoVn-344" value="+ boolean aplica(Muestra)" style="text;strokeColor=none;fillColor=none;align=left;verticalAlign=top;spacingLeft=4;spacingRight=4;overflow=hidden;rotatable=0;points=[[0,0.5],[1,0.5]];portConstraint=eastwest;" vertex="1" parent="7A8Va4b6gNFC_HV1zoVn-339">
          <mxGeometry y="112" width="170" height="26" as="geometry" />
        </mxCell>
        <mxCell id="7A8Va4b6gNFC_HV1zoVn-345" value="FiltroOr" style="swimlane;fontStyle=1;childLayout=stackLayout;horizontal=1;startSize=26;horizontalStack=0;resizeParent=1;resizeParentMax=0;resizeLast=0;collapsible=1;marginBottom=0;" vertex="1" parent="1">
          <mxGeometry x="-1430" y="1052" width="170" height="138" as="geometry" />
        </mxCell>
        <mxCell id="7A8Va4b6gNFC_HV1zoVn-346" value="- Filtro filtro1" style="text;strokeColor=none;fillColor=none;align=left;verticalAlign=top;spacingLeft=4;spacingRight=4;overflow=hidden;rotatable=0;points=[[0,0.5],[1,0.5]];portConstraint=eastwest;" vertex="1" parent="7A8Va4b6gNFC_HV1zoVn-345">
          <mxGeometry y="26" width="170" height="26" as="geometry" />
        </mxCell>
        <mxCell id="7A8Va4b6gNFC_HV1zoVn-347" value="- Filtro filtro2" style="text;strokeColor=none;fillColor=none;align=left;verticalAlign=top;spacingLeft=4;spacingRight=4;overflow=hidden;rotatable=0;points=[[0,0.5],[1,0.5]];portConstraint=eastwest;" vertex="1" parent="7A8Va4b6gNFC_HV1zoVn-345">
          <mxGeometry y="52" width="170" height="26" as="geometry" />
        </mxCell>
        <mxCell id="7A8Va4b6gNFC_HV1zoVn-348" value="" style="line;strokeWidth=1;fillColor=none;align=left;verticalAlign=middle;spacingTop=-1;spacingLeft=3;spacingRight=3;rotatable=0;labelPosition=right;points=[];portConstraint=eastwest;" vertex="1" parent="7A8Va4b6gNFC_HV1zoVn-345">
          <mxGeometry y="78" width="170" height="8" as="geometry" />
        </mxCell>
        <mxCell id="7A8Va4b6gNFC_HV1zoVn-349" value="+ FiltroOr(Filtro, Filtro)" style="text;strokeColor=none;fillColor=none;align=left;verticalAlign=top;spacingLeft=4;spacingRight=4;overflow=hidden;rotatable=0;points=[[0,0.5],[1,0.5]];portConstraint=eastwest;" vertex="1" parent="7A8Va4b6gNFC_HV1zoVn-345">
          <mxGeometry y="86" width="170" height="26" as="geometry" />
        </mxCell>
        <mxCell id="7A8Va4b6gNFC_HV1zoVn-350" value="+ boolean aplica(Muestra)" style="text;strokeColor=none;fillColor=none;align=left;verticalAlign=top;spacingLeft=4;spacingRight=4;overflow=hidden;rotatable=0;points=[[0,0.5],[1,0.5]];portConstraint=eastwest;" vertex="1" parent="7A8Va4b6gNFC_HV1zoVn-345">
          <mxGeometry y="112" width="170" height="26" as="geometry" />
        </mxCell>
        <mxCell id="7A8Va4b6gNFC_HV1zoVn-420" style="edgeStyle=orthogonalEdgeStyle;rounded=0;orthogonalLoop=1;jettySize=auto;html=1;exitX=0.5;exitY=0;exitDx=0;exitDy=0;entryX=1;entryY=0.5;entryDx=0;entryDy=0;dashed=1;endArrow=block;endFill=0;" edge="1" parent="1" source="7A8Va4b6gNFC_HV1zoVn-351" target="7A8Va4b6gNFC_HV1zoVn-337">
          <mxGeometry relative="1" as="geometry" />
        </mxCell>
        <mxCell id="7A8Va4b6gNFC_HV1zoVn-351" value="FiltroTipoInsectoMuestra" style="swimlane;fontStyle=1;childLayout=stackLayout;horizontal=1;startSize=26;horizontalStack=0;resizeParent=1;resizeParentMax=0;resizeLast=0;collapsible=1;marginBottom=0;" vertex="1" parent="1">
          <mxGeometry x="-1160" y="1052" width="240" height="112" as="geometry" />
        </mxCell>
        <mxCell id="7A8Va4b6gNFC_HV1zoVn-352" value="- TipoOpinion tipoBuscado" style="text;strokeColor=none;fillColor=none;align=left;verticalAlign=top;spacingLeft=4;spacingRight=4;overflow=hidden;rotatable=0;points=[[0,0.5],[1,0.5]];portConstraint=eastwest;" vertex="1" parent="7A8Va4b6gNFC_HV1zoVn-351">
          <mxGeometry y="26" width="240" height="26" as="geometry" />
        </mxCell>
        <mxCell id="7A8Va4b6gNFC_HV1zoVn-353" value="" style="line;strokeWidth=1;fillColor=none;align=left;verticalAlign=middle;spacingTop=-1;spacingLeft=3;spacingRight=3;rotatable=0;labelPosition=right;points=[];portConstraint=eastwest;" vertex="1" parent="7A8Va4b6gNFC_HV1zoVn-351">
          <mxGeometry y="52" width="240" height="8" as="geometry" />
        </mxCell>
        <mxCell id="7A8Va4b6gNFC_HV1zoVn-431" value="tipoBuscado" style="edgeStyle=orthogonalEdgeStyle;rounded=0;orthogonalLoop=1;jettySize=auto;html=1;exitX=1;exitY=0.5;exitDx=0;exitDy=0;endArrow=none;startFill=0;" edge="1" parent="7A8Va4b6gNFC_HV1zoVn-351" source="7A8Va4b6gNFC_HV1zoVn-354">
          <mxGeometry relative="1" as="geometry">
            <mxPoint x="560" y="1918" as="targetPoint" />
          </mxGeometry>
        </mxCell>
        <mxCell id="7A8Va4b6gNFC_HV1zoVn-354" value="+ FiltroTipoInsectoMuestra(TipoOpinion)" style="text;strokeColor=none;fillColor=none;align=left;verticalAlign=top;spacingLeft=4;spacingRight=4;overflow=hidden;rotatable=0;points=[[0,0.5],[1,0.5]];portConstraint=eastwest;" vertex="1" parent="7A8Va4b6gNFC_HV1zoVn-351">
          <mxGeometry y="60" width="240" height="26" as="geometry" />
        </mxCell>
        <mxCell id="7A8Va4b6gNFC_HV1zoVn-355" value="+ boolean aplica(Muestra)" style="text;strokeColor=none;fillColor=none;align=left;verticalAlign=top;spacingLeft=4;spacingRight=4;overflow=hidden;rotatable=0;points=[[0,0.5],[1,0.5]];portConstraint=eastwest;" vertex="1" parent="7A8Va4b6gNFC_HV1zoVn-351">
          <mxGeometry y="86" width="240" height="26" as="geometry" />
        </mxCell>
        <mxCell id="7A8Va4b6gNFC_HV1zoVn-357" style="edgeStyle=orthogonalEdgeStyle;rounded=0;orthogonalLoop=1;jettySize=auto;html=1;exitX=1;exitY=0.5;exitDx=0;exitDy=0;entryX=0.5;entryY=0;entryDx=0;entryDy=0;" edge="1" parent="1" source="7A8Va4b6gNFC_HV1zoVn-195" target="7A8Va4b6gNFC_HV1zoVn-303">
          <mxGeometry relative="1" as="geometry" />
        </mxCell>
        <mxCell id="7A8Va4b6gNFC_HV1zoVn-358" style="edgeStyle=orthogonalEdgeStyle;rounded=0;orthogonalLoop=1;jettySize=auto;html=1;exitX=0;exitY=0.5;exitDx=0;exitDy=0;entryX=0.5;entryY=0;entryDx=0;entryDy=0;" edge="1" parent="1" source="7A8Va4b6gNFC_HV1zoVn-193" target="7A8Va4b6gNFC_HV1zoVn-251">
          <mxGeometry relative="1" as="geometry" />
        </mxCell>
        <mxCell id="7A8Va4b6gNFC_HV1zoVn-445" value="autor" style="edgeLabel;html=1;align=center;verticalAlign=middle;resizable=0;points=[];" vertex="1" connectable="0" parent="7A8Va4b6gNFC_HV1zoVn-358">
          <mxGeometry x="0.359" y="5" relative="1" as="geometry">
            <mxPoint as="offset" />
          </mxGeometry>
        </mxCell>
        <mxCell id="7A8Va4b6gNFC_HV1zoVn-359" value="muestras *" style="edgeStyle=orthogonalEdgeStyle;rounded=0;orthogonalLoop=1;jettySize=auto;html=1;exitX=0;exitY=0.5;exitDx=0;exitDy=0;entryX=0.5;entryY=0;entryDx=0;entryDy=0;" edge="1" parent="1" source="7A8Va4b6gNFC_HV1zoVn-318" target="7A8Va4b6gNFC_HV1zoVn-184">
          <mxGeometry x="-0.0003" relative="1" as="geometry">
            <mxPoint as="offset" />
          </mxGeometry>
        </mxCell>
        <mxCell id="7A8Va4b6gNFC_HV1zoVn-361" value="organizacionesRegistradas *" style="edgeStyle=orthogonalEdgeStyle;rounded=0;orthogonalLoop=1;jettySize=auto;html=1;exitX=0.5;exitY=0;exitDx=0;exitDy=0;startArrow=classic;startFill=1;endArrow=none;endFill=1;" edge="1" parent="1" source="7A8Va4b6gNFC_HV1zoVn-278">
          <mxGeometry relative="1" as="geometry">
            <mxPoint x="1570" y="1170" as="targetPoint" />
          </mxGeometry>
        </mxCell>
        <mxCell id="7A8Va4b6gNFC_HV1zoVn-362" value="EstadoAbierta" style="swimlane;fontStyle=1;childLayout=stackLayout;horizontal=1;startSize=26;horizontalStack=0;resizeParent=1;resizeParentMax=0;resizeLast=0;collapsible=1;marginBottom=0;" vertex="1" parent="1">
          <mxGeometry x="-370" y="2522.5" width="260" height="130" as="geometry" />
        </mxCell>
        <mxCell id="7A8Va4b6gNFC_HV1zoVn-363" value="+ boolean esAbierta()" style="text;strokeColor=none;fillColor=none;align=left;verticalAlign=top;spacingLeft=4;spacingRight=4;overflow=hidden;rotatable=0;points=[[0,0.5],[1,0.5]];portConstraint=eastwest;" vertex="1" parent="7A8Va4b6gNFC_HV1zoVn-362">
          <mxGeometry y="26" width="260" height="26" as="geometry" />
        </mxCell>
        <mxCell id="7A8Va4b6gNFC_HV1zoVn-364" value="+ void agregarOpinion(Muestra, Opinion)" style="text;strokeColor=none;fillColor=none;align=left;verticalAlign=top;spacingLeft=4;spacingRight=4;overflow=hidden;rotatable=0;points=[[0,0.5],[1,0.5]];portConstraint=eastwest;" vertex="1" parent="7A8Va4b6gNFC_HV1zoVn-362">
          <mxGeometry y="52" width="260" height="26" as="geometry" />
        </mxCell>
        <mxCell id="7A8Va4b6gNFC_HV1zoVn-365" value="+ String getNombreEstado()" style="text;strokeColor=none;fillColor=none;align=left;verticalAlign=top;spacingLeft=4;spacingRight=4;overflow=hidden;rotatable=0;points=[[0,0.5],[1,0.5]];portConstraint=eastwest;" vertex="1" parent="7A8Va4b6gNFC_HV1zoVn-362">
          <mxGeometry y="78" width="260" height="26" as="geometry" />
        </mxCell>
        <mxCell id="7A8Va4b6gNFC_HV1zoVn-366" value="+ TipoOpinion getResultadoActual(Muestra)" style="text;strokeColor=none;fillColor=none;align=left;verticalAlign=top;spacingLeft=4;spacingRight=4;overflow=hidden;rotatable=0;points=[[0,0.5],[1,0.5]];portConstraint=eastwest;" vertex="1" parent="7A8Va4b6gNFC_HV1zoVn-362">
          <mxGeometry y="104" width="260" height="26" as="geometry" />
        </mxCell>
        <mxCell id="7A8Va4b6gNFC_HV1zoVn-367" value="EstadoEnVerificacion" style="swimlane;fontStyle=1;childLayout=stackLayout;horizontal=1;startSize=26;horizontalStack=0;resizeParent=1;resizeParentMax=0;resizeLast=0;collapsible=1;marginBottom=0;" vertex="1" parent="1">
          <mxGeometry x="-65" y="2522.5" width="360" height="156" as="geometry" />
        </mxCell>
        <mxCell id="7A8Va4b6gNFC_HV1zoVn-368" value="+ boolean esEnVerificacion()" style="text;strokeColor=none;fillColor=none;align=left;verticalAlign=top;spacingLeft=4;spacingRight=4;overflow=hidden;rotatable=0;points=[[0,0.5],[1,0.5]];portConstraint=eastwest;" vertex="1" parent="7A8Va4b6gNFC_HV1zoVn-367">
          <mxGeometry y="26" width="360" height="26" as="geometry" />
        </mxCell>
        <mxCell id="7A8Va4b6gNFC_HV1zoVn-369" value="+ void agregarOpinion(Muestra, Opinion)" style="text;strokeColor=none;fillColor=none;align=left;verticalAlign=top;spacingLeft=4;spacingRight=4;overflow=hidden;rotatable=0;points=[[0,0.5],[1,0.5]];portConstraint=eastwest;" vertex="1" parent="7A8Va4b6gNFC_HV1zoVn-367">
          <mxGeometry y="52" width="360" height="26" as="geometry" />
        </mxCell>
        <mxCell id="7A8Va4b6gNFC_HV1zoVn-370" value="+ String getNombreEstado()" style="text;strokeColor=none;fillColor=none;align=left;verticalAlign=top;spacingLeft=4;spacingRight=4;overflow=hidden;rotatable=0;points=[[0,0.5],[1,0.5]];portConstraint=eastwest;" vertex="1" parent="7A8Va4b6gNFC_HV1zoVn-367">
          <mxGeometry y="78" width="360" height="26" as="geometry" />
        </mxCell>
        <mxCell id="7A8Va4b6gNFC_HV1zoVn-371" value="+ TipoOpinion getResultadoActual(Muestra)" style="text;strokeColor=none;fillColor=none;align=left;verticalAlign=top;spacingLeft=4;spacingRight=4;overflow=hidden;rotatable=0;points=[[0,0.5],[1,0.5]];portConstraint=eastwest;" vertex="1" parent="7A8Va4b6gNFC_HV1zoVn-367">
          <mxGeometry y="104" width="360" height="26" as="geometry" />
        </mxCell>
        <mxCell id="7A8Va4b6gNFC_HV1zoVn-372" value="+ boolean hayCoincidenciaDeExpertos(Muestra, TipoOpinion)" style="text;strokeColor=none;fillColor=none;align=left;verticalAlign=top;spacingLeft=4;spacingRight=4;overflow=hidden;rotatable=0;points=[[0,0.5],[1,0.5]];portConstraint=eastwest;" vertex="1" parent="7A8Va4b6gNFC_HV1zoVn-367">
          <mxGeometry y="130" width="360" height="26" as="geometry" />
        </mxCell>
        <mxCell id="7A8Va4b6gNFC_HV1zoVn-373" value="EstadoVerificada" style="swimlane;fontStyle=1;childLayout=stackLayout;horizontal=1;startSize=26;horizontalStack=0;resizeParent=1;resizeParentMax=0;resizeLast=0;collapsible=1;marginBottom=0;" vertex="1" parent="1">
          <mxGeometry x="340" y="2522.5" width="260" height="156" as="geometry" />
        </mxCell>
        <mxCell id="7A8Va4b6gNFC_HV1zoVn-374" value="+ boolean esVerificada()" style="text;strokeColor=none;fillColor=none;align=left;verticalAlign=top;spacingLeft=4;spacingRight=4;overflow=hidden;rotatable=0;points=[[0,0.5],[1,0.5]];portConstraint=eastwest;" vertex="1" parent="7A8Va4b6gNFC_HV1zoVn-373">
          <mxGeometry y="26" width="260" height="26" as="geometry" />
        </mxCell>
        <mxCell id="7A8Va4b6gNFC_HV1zoVn-375" value="+ void agregarOpinion(Muestra, Opinion)" style="text;strokeColor=none;fillColor=none;align=left;verticalAlign=top;spacingLeft=4;spacingRight=4;overflow=hidden;rotatable=0;points=[[0,0.5],[1,0.5]];portConstraint=eastwest;" vertex="1" parent="7A8Va4b6gNFC_HV1zoVn-373">
          <mxGeometry y="52" width="260" height="26" as="geometry" />
        </mxCell>
        <mxCell id="7A8Va4b6gNFC_HV1zoVn-376" value="+ void notificarSiVerificada(Muestra)" style="text;strokeColor=none;fillColor=none;align=left;verticalAlign=top;spacingLeft=4;spacingRight=4;overflow=hidden;rotatable=0;points=[[0,0.5],[1,0.5]];portConstraint=eastwest;" vertex="1" parent="7A8Va4b6gNFC_HV1zoVn-373">
          <mxGeometry y="78" width="260" height="26" as="geometry" />
        </mxCell>
        <mxCell id="7A8Va4b6gNFC_HV1zoVn-377" value="+ String getNombreEstado()" style="text;strokeColor=none;fillColor=none;align=left;verticalAlign=top;spacingLeft=4;spacingRight=4;overflow=hidden;rotatable=0;points=[[0,0.5],[1,0.5]];portConstraint=eastwest;" vertex="1" parent="7A8Va4b6gNFC_HV1zoVn-373">
          <mxGeometry y="104" width="260" height="26" as="geometry" />
        </mxCell>
        <mxCell id="7A8Va4b6gNFC_HV1zoVn-378" value="+ TipoOpinion getResultadoActual(Muestra)" style="text;strokeColor=none;fillColor=none;align=left;verticalAlign=top;spacingLeft=4;spacingRight=4;overflow=hidden;rotatable=0;points=[[0,0.5],[1,0.5]];portConstraint=eastwest;" vertex="1" parent="7A8Va4b6gNFC_HV1zoVn-373">
          <mxGeometry y="130" width="260" height="26" as="geometry" />
        </mxCell>
        <mxCell id="7A8Va4b6gNFC_HV1zoVn-379" value="observadores *" style="edgeStyle=orthogonalEdgeStyle;rounded=0;orthogonalLoop=1;jettySize=auto;html=1;exitX=1;exitY=0.5;exitDx=0;exitDy=0;entryX=0;entryY=0.5;entryDx=0;entryDy=0;" edge="1" parent="1" source="7A8Va4b6gNFC_HV1zoVn-185" target="7A8Va4b6gNFC_HV1zoVn-238">
          <mxGeometry relative="1" as="geometry" />
        </mxCell>
        <mxCell id="7A8Va4b6gNFC_HV1zoVn-380" style="edgeStyle=orthogonalEdgeStyle;rounded=0;orthogonalLoop=1;jettySize=auto;html=1;exitX=0;exitY=0.5;exitDx=0;exitDy=0;dashed=1;endArrow=block;endFill=0;" edge="1" parent="1" source="7A8Va4b6gNFC_HV1zoVn-328">
          <mxGeometry relative="1" as="geometry">
            <mxPoint x="970" y="1159" as="targetPoint" />
          </mxGeometry>
        </mxCell>
        <mxCell id="7A8Va4b6gNFC_HV1zoVn-382" value="funcionalidadNuevaMuestra" style="edgeStyle=orthogonalEdgeStyle;rounded=0;orthogonalLoop=1;jettySize=auto;html=1;exitX=0;exitY=0.5;exitDx=0;exitDy=0;entryX=0.5;entryY=0;entryDx=0;entryDy=0;" edge="1" parent="1" source="7A8Va4b6gNFC_HV1zoVn-293" target="7A8Va4b6gNFC_HV1zoVn-298">
          <mxGeometry relative="1" as="geometry" />
        </mxCell>
        <mxCell id="7A8Va4b6gNFC_HV1zoVn-383" style="edgeStyle=orthogonalEdgeStyle;rounded=0;orthogonalLoop=1;jettySize=auto;html=1;exitX=1;exitY=0.5;exitDx=0;exitDy=0;entryX=0.5;entryY=0;entryDx=0;entryDy=0;" edge="1" parent="1" source="7A8Va4b6gNFC_HV1zoVn-293" target="7A8Va4b6gNFC_HV1zoVn-300">
          <mxGeometry relative="1" as="geometry" />
        </mxCell>
        <mxCell id="7A8Va4b6gNFC_HV1zoVn-384" value="funcionalidadValidacion" style="edgeStyle=orthogonalEdgeStyle;rounded=0;orthogonalLoop=1;jettySize=auto;html=1;exitX=0;exitY=0.5;exitDx=0;exitDy=0;entryX=0.75;entryY=0;entryDx=0;entryDy=0;" edge="1" parent="1" source="7A8Va4b6gNFC_HV1zoVn-296" target="7A8Va4b6gNFC_HV1zoVn-298">
          <mxGeometry relative="1" as="geometry" />
        </mxCell>
        <mxCell id="7A8Va4b6gNFC_HV1zoVn-385" style="edgeStyle=orthogonalEdgeStyle;rounded=0;orthogonalLoop=1;jettySize=auto;html=1;exitX=1;exitY=0.5;exitDx=0;exitDy=0;entryX=0.5;entryY=0;entryDx=0;entryDy=0;dashed=1;endArrow=none;startFill=0;startArrow=block;" edge="1" parent="1" source="7A8Va4b6gNFC_HV1zoVn-246" target="7A8Va4b6gNFC_HV1zoVn-373">
          <mxGeometry relative="1" as="geometry" />
        </mxCell>
        <mxCell id="7A8Va4b6gNFC_HV1zoVn-386" style="edgeStyle=orthogonalEdgeStyle;rounded=0;orthogonalLoop=1;jettySize=auto;html=1;exitX=0;exitY=0.5;exitDx=0;exitDy=0;entryX=0.5;entryY=0;entryDx=0;entryDy=0;dashed=1;startArrow=block;startFill=0;endArrow=none;" edge="1" parent="1" source="7A8Va4b6gNFC_HV1zoVn-246" target="7A8Va4b6gNFC_HV1zoVn-362">
          <mxGeometry relative="1" as="geometry" />
        </mxCell>
        <mxCell id="7A8Va4b6gNFC_HV1zoVn-390" style="edgeStyle=orthogonalEdgeStyle;rounded=0;orthogonalLoop=1;jettySize=auto;html=1;exitX=0;exitY=0.5;exitDx=0;exitDy=0;endArrow=none;startFill=0;" edge="1" parent="1" source="7A8Va4b6gNFC_HV1zoVn-321">
          <mxGeometry relative="1" as="geometry">
            <mxPoint x="1070" y="1600" as="targetPoint" />
          </mxGeometry>
        </mxCell>
        <mxCell id="7A8Va4b6gNFC_HV1zoVn-392" value="" style="endArrow=none;html=1;rounded=0;" edge="1" parent="1">
          <mxGeometry width="50" height="50" relative="1" as="geometry">
            <mxPoint x="620" y="1600" as="sourcePoint" />
            <mxPoint x="1070" y="1600" as="targetPoint" />
          </mxGeometry>
        </mxCell>
        <mxCell id="7A8Va4b6gNFC_HV1zoVn-395" value="especieInicial" style="edgeStyle=orthogonalEdgeStyle;rounded=0;orthogonalLoop=1;jettySize=auto;html=1;exitX=0;exitY=0.5;exitDx=0;exitDy=0;entryX=0.5;entryY=0;entryDx=0;entryDy=0;" edge="1" parent="1" source="7A8Va4b6gNFC_HV1zoVn-210" target="7A8Va4b6gNFC_HV1zoVn-241">
          <mxGeometry relative="1" as="geometry" />
        </mxCell>
        <mxCell id="7A8Va4b6gNFC_HV1zoVn-396" style="edgeStyle=orthogonalEdgeStyle;rounded=0;orthogonalLoop=1;jettySize=auto;html=1;exitX=1;exitY=0.5;exitDx=0;exitDy=0;entryX=1;entryY=0.5;entryDx=0;entryDy=0;" edge="1" parent="1" source="7A8Va4b6gNFC_HV1zoVn-219" target="7A8Va4b6gNFC_HV1zoVn-269">
          <mxGeometry relative="1" as="geometry" />
        </mxCell>
        <mxCell id="7A8Va4b6gNFC_HV1zoVn-397" value="revisiones *" style="edgeStyle=orthogonalEdgeStyle;rounded=0;orthogonalLoop=1;jettySize=auto;html=1;exitX=0;exitY=0.5;exitDx=0;exitDy=0;entryX=0;entryY=0.5;entryDx=0;entryDy=0;" edge="1" parent="1" source="7A8Va4b6gNFC_HV1zoVn-269" target="7A8Va4b6gNFC_HV1zoVn-219">
          <mxGeometry relative="1" as="geometry">
            <Array as="points">
              <mxPoint x="-1800" y="2223" />
              <mxPoint x="-1800" y="2540" />
            </Array>
          </mxGeometry>
        </mxCell>
        <mxCell id="7A8Va4b6gNFC_HV1zoVn-398" style="edgeStyle=orthogonalEdgeStyle;rounded=0;orthogonalLoop=1;jettySize=auto;html=1;exitX=0;exitY=0.5;exitDx=0;exitDy=0;entryX=1;entryY=0.5;entryDx=0;entryDy=0;" edge="1" parent="1" source="7A8Va4b6gNFC_HV1zoVn-260" target="7A8Va4b6gNFC_HV1zoVn-230">
          <mxGeometry relative="1" as="geometry" />
        </mxCell>
        <mxCell id="7A8Va4b6gNFC_HV1zoVn-402" value="EstadoBasico" style="swimlane;fontStyle=1;childLayout=stackLayout;horizontal=1;startSize=26;horizontalStack=0;resizeParent=1;resizeParentMax=0;resizeLast=0;collapsible=1;marginBottom=0;" vertex="1" parent="1">
          <mxGeometry x="-1300" y="2345" width="210" height="104" as="geometry" />
        </mxCell>
        <mxCell id="7A8Va4b6gNFC_HV1zoVn-403" value="+ boolean esExperto()" style="text;strokeColor=none;fillColor=none;align=left;verticalAlign=top;spacingLeft=4;spacingRight=4;overflow=hidden;rotatable=0;points=[[0,0.5],[1,0.5]];portConstraint=eastwest;" vertex="1" parent="7A8Va4b6gNFC_HV1zoVn-402">
          <mxGeometry y="26" width="210" height="26" as="geometry" />
        </mxCell>
        <mxCell id="7A8Va4b6gNFC_HV1zoVn-404" value="+ boolean esEspecialista()" style="text;strokeColor=none;fillColor=none;align=left;verticalAlign=top;spacingLeft=4;spacingRight=4;overflow=hidden;rotatable=0;points=[[0,0.5],[1,0.5]];portConstraint=eastwest;" vertex="1" parent="7A8Va4b6gNFC_HV1zoVn-402">
          <mxGeometry y="52" width="210" height="26" as="geometry" />
        </mxCell>
        <mxCell id="7A8Va4b6gNFC_HV1zoVn-405" value="+ void evaluarPromocion(Usuario)" style="text;strokeColor=none;fillColor=none;align=left;verticalAlign=top;spacingLeft=4;spacingRight=4;overflow=hidden;rotatable=0;points=[[0,0.5],[1,0.5]];portConstraint=eastwest;" vertex="1" parent="7A8Va4b6gNFC_HV1zoVn-402">
          <mxGeometry y="78" width="210" height="26" as="geometry" />
        </mxCell>
        <mxCell id="7A8Va4b6gNFC_HV1zoVn-417" style="edgeStyle=orthogonalEdgeStyle;rounded=0;orthogonalLoop=1;jettySize=auto;html=1;exitX=0.5;exitY=0;exitDx=0;exitDy=0;entryX=0.5;entryY=1;entryDx=0;entryDy=0;endArrow=block;endFill=0;dashed=1;" edge="1" parent="1" source="7A8Va4b6gNFC_HV1zoVn-406" target="7A8Va4b6gNFC_HV1zoVn-274">
          <mxGeometry relative="1" as="geometry">
            <mxPoint x="-965.3157894736842" y="2040" as="targetPoint" />
          </mxGeometry>
        </mxCell>
        <mxCell id="7A8Va4b6gNFC_HV1zoVn-406" value="EstadoExperto" style="swimlane;fontStyle=1;childLayout=stackLayout;horizontal=1;startSize=26;horizontalStack=0;resizeParent=1;resizeParentMax=0;resizeLast=0;collapsible=1;marginBottom=0;" vertex="1" parent="1">
          <mxGeometry x="-1080" y="2345" width="210" height="104" as="geometry" />
        </mxCell>
        <mxCell id="7A8Va4b6gNFC_HV1zoVn-407" value="+ boolean esExperto()" style="text;strokeColor=none;fillColor=none;align=left;verticalAlign=top;spacingLeft=4;spacingRight=4;overflow=hidden;rotatable=0;points=[[0,0.5],[1,0.5]];portConstraint=eastwest;" vertex="1" parent="7A8Va4b6gNFC_HV1zoVn-406">
          <mxGeometry y="26" width="210" height="26" as="geometry" />
        </mxCell>
        <mxCell id="7A8Va4b6gNFC_HV1zoVn-408" value="+ boolean esEspecialista()" style="text;strokeColor=none;fillColor=none;align=left;verticalAlign=top;spacingLeft=4;spacingRight=4;overflow=hidden;rotatable=0;points=[[0,0.5],[1,0.5]];portConstraint=eastwest;" vertex="1" parent="7A8Va4b6gNFC_HV1zoVn-406">
          <mxGeometry y="52" width="210" height="26" as="geometry" />
        </mxCell>
        <mxCell id="7A8Va4b6gNFC_HV1zoVn-409" value="+ void evaluarPromocion(Usuario)" style="text;strokeColor=none;fillColor=none;align=left;verticalAlign=top;spacingLeft=4;spacingRight=4;overflow=hidden;rotatable=0;points=[[0,0.5],[1,0.5]];portConstraint=eastwest;" vertex="1" parent="7A8Va4b6gNFC_HV1zoVn-406">
          <mxGeometry y="78" width="210" height="26" as="geometry" />
        </mxCell>
        <mxCell id="7A8Va4b6gNFC_HV1zoVn-410" value="EstadoEspecialista" style="swimlane;fontStyle=1;childLayout=stackLayout;horizontal=1;startSize=26;horizontalStack=0;resizeParent=1;resizeParentMax=0;resizeLast=0;collapsible=1;marginBottom=0;" vertex="1" parent="1">
          <mxGeometry x="-860" y="2345" width="210" height="104" as="geometry" />
        </mxCell>
        <mxCell id="7A8Va4b6gNFC_HV1zoVn-411" value="+ boolean esExperto()" style="text;strokeColor=none;fillColor=none;align=left;verticalAlign=top;spacingLeft=4;spacingRight=4;overflow=hidden;rotatable=0;points=[[0,0.5],[1,0.5]];portConstraint=eastwest;" vertex="1" parent="7A8Va4b6gNFC_HV1zoVn-410">
          <mxGeometry y="26" width="210" height="26" as="geometry" />
        </mxCell>
        <mxCell id="7A8Va4b6gNFC_HV1zoVn-412" value="+ boolean esEspecialista()" style="text;strokeColor=none;fillColor=none;align=left;verticalAlign=top;spacingLeft=4;spacingRight=4;overflow=hidden;rotatable=0;points=[[0,0.5],[1,0.5]];portConstraint=eastwest;" vertex="1" parent="7A8Va4b6gNFC_HV1zoVn-410">
          <mxGeometry y="52" width="210" height="26" as="geometry" />
        </mxCell>
        <mxCell id="7A8Va4b6gNFC_HV1zoVn-413" value="+ void evaluarPromocion(Usuario)" style="text;strokeColor=none;fillColor=none;align=left;verticalAlign=top;spacingLeft=4;spacingRight=4;overflow=hidden;rotatable=0;points=[[0,0.5],[1,0.5]];portConstraint=eastwest;" vertex="1" parent="7A8Va4b6gNFC_HV1zoVn-410">
          <mxGeometry y="78" width="210" height="26" as="geometry" />
        </mxCell>
        <mxCell id="7A8Va4b6gNFC_HV1zoVn-415" style="edgeStyle=orthogonalEdgeStyle;rounded=0;orthogonalLoop=1;jettySize=auto;html=1;exitX=1;exitY=0.5;exitDx=0;exitDy=0;entryX=0.5;entryY=0;entryDx=0;entryDy=0;dashed=1;endArrow=none;startFill=0;startArrow=block;" edge="1" parent="1" source="7A8Va4b6gNFC_HV1zoVn-276" target="7A8Va4b6gNFC_HV1zoVn-410">
          <mxGeometry relative="1" as="geometry" />
        </mxCell>
        <mxCell id="7A8Va4b6gNFC_HV1zoVn-416" style="edgeStyle=orthogonalEdgeStyle;rounded=0;orthogonalLoop=1;jettySize=auto;html=1;exitX=0;exitY=0.5;exitDx=0;exitDy=0;entryX=0.5;entryY=0;entryDx=0;entryDy=0;startArrow=block;startFill=0;endArrow=none;dashed=1;" edge="1" parent="1" source="7A8Va4b6gNFC_HV1zoVn-276" target="7A8Va4b6gNFC_HV1zoVn-402">
          <mxGeometry relative="1" as="geometry" />
        </mxCell>
        <mxCell id="7A8Va4b6gNFC_HV1zoVn-422" style="edgeStyle=orthogonalEdgeStyle;rounded=0;orthogonalLoop=1;jettySize=auto;html=1;exitX=0.5;exitY=0;exitDx=0;exitDy=0;entryX=-0.013;entryY=0.11;entryDx=0;entryDy=0;entryPerimeter=0;dashed=1;endArrow=block;endFill=0;" edge="1" parent="1" source="7A8Va4b6gNFC_HV1zoVn-339" target="7A8Va4b6gNFC_HV1zoVn-338">
          <mxGeometry relative="1" as="geometry" />
        </mxCell>
        <mxCell id="7A8Va4b6gNFC_HV1zoVn-425" value="usa" style="edgeStyle=orthogonalEdgeStyle;rounded=0;orthogonalLoop=1;jettySize=auto;html=1;exitX=0;exitY=0.5;exitDx=0;exitDy=0;entryX=0.5;entryY=0;entryDx=0;entryDy=0;" edge="1" parent="1" source="7A8Va4b6gNFC_HV1zoVn-336" target="7A8Va4b6gNFC_HV1zoVn-337">
          <mxGeometry relative="1" as="geometry" />
        </mxCell>
        <mxCell id="7A8Va4b6gNFC_HV1zoVn-429" value="usa" style="edgeStyle=orthogonalEdgeStyle;rounded=0;orthogonalLoop=1;jettySize=auto;html=1;exitX=1;exitY=0.5;exitDx=0;exitDy=0;entryX=0.5;entryY=0;entryDx=0;entryDy=0;dashed=1;endArrow=open;endFill=0;" edge="1" parent="1" source="7A8Va4b6gNFC_HV1zoVn-330" target="7A8Va4b6gNFC_HV1zoVn-311">
          <mxGeometry relative="1" as="geometry" />
        </mxCell>
        <mxCell id="7A8Va4b6gNFC_HV1zoVn-436" value="" style="endArrow=none;html=1;rounded=0;" edge="1" parent="1">
          <mxGeometry width="50" height="50" relative="1" as="geometry">
            <mxPoint x="-440" y="2950" as="sourcePoint" />
            <mxPoint x="-440" y="2080" as="targetPoint" />
          </mxGeometry>
        </mxCell>
        <mxCell id="7A8Va4b6gNFC_HV1zoVn-437" value="resultadoVerificado" style="endArrow=none;html=1;rounded=0;" edge="1" parent="1">
          <mxGeometry width="50" height="50" relative="1" as="geometry">
            <mxPoint x="-440" y="2080" as="sourcePoint" />
            <mxPoint x="-170" y="2080" as="targetPoint" />
          </mxGeometry>
        </mxCell>
        <mxCell id="7A8Va4b6gNFC_HV1zoVn-440" value="muestra" style="endArrow=none;html=1;rounded=0;" edge="1" parent="1">
          <mxGeometry width="50" height="50" relative="1" as="geometry">
            <mxPoint x="-130" y="2160" as="sourcePoint" />
            <mxPoint x="-500" y="2160" as="targetPoint" />
          </mxGeometry>
        </mxCell>
        <mxCell id="7A8Va4b6gNFC_HV1zoVn-441" value="" style="endArrow=none;html=1;rounded=0;" edge="1" parent="1">
          <mxGeometry width="50" height="50" relative="1" as="geometry">
            <mxPoint x="-500" y="2630" as="sourcePoint" />
            <mxPoint x="-500" y="2160" as="targetPoint" />
          </mxGeometry>
        </mxCell>
      </root>
    </mxGraphModel>
  </diagram>
</mxfile>
